/* XPM */
static char *_528013121844[] = {
/* columns rows colors chars-per-pixel */
"68 74 156 2 ",
"   c black",
".  c #2E0000",
"X  c #00002E",
"o  c #2E2E2E",
"O  c #410000",
"+  c #4F0000",
"@  c #500000",
"#  c #5B0000",
"$  c #670000",
"%  c #662D00",
"&  c #712E00",
"*  c #4F412E",
"=  c #000041",
"-  c #00004F",
";  c #000050",
":  c #00005C",
">  c #2E0040",
",  c #000079",
"<  c #002E66",
"1  c #00415C",
"2  c #004179",
"3  c #4F414F",
"4  c #5C4F48",
"5  c #4F4F5B",
"6  c #505050",
"7  c #5C5C5C",
"8  c #70665C",
"9  c gray40",
"0  c #757475",
"q  c #912E00",
"w  c #814000",
"e  c #904000",
"r  c #984100",
"t  c #9E4F00",
"y  c #9F5000",
"u  c #A55C00",
"i  c #AB5C00",
"p  c #824F41",
"a  c #81704F",
"s  c #847976",
"d  c #818179",
"f  c #A59167",
"g  c #CD9141",
"h  c #CC904F",
"j  c #D1975B",
"k  c #D2985C",
"l  c #C29F66",
"z  c #CD9F79",
"x  c #000089",
"c  c #002E91",
"v  c #004095",
"b  c #004198",
"n  c #004F9A",
"m  c #005C91",
"M  c #2E6691",
"N  c #7A7A82",
"B  c #827982",
"V  c #7A8282",
"C  c #798298",
"Z  c #4F81BC",
"A  c #7A8AAC",
"S  c #6689B7",
"D  c #2E89C7",
"F  c #4891CA",
"G  c #4F91CD",
"H  c #5091CD",
"J  c #4191D2",
"K  c #4F97D1",
"L  c #4F98D2",
"P  c #5098D2",
"I  c #79A5C8",
"U  c #66B1DB",
"Y  c #818181",
"T  c #898189",
"R  c #898989",
"E  c #988181",
"W  c #899094",
"Q  c #9E9890",
"!  c #B19081",
"~  c #B8A998",
"^  c #8197BC",
"/  c #9E9EB1",
"(  c #9EA5A5",
")  c #89A5B1",
"_  c #A5A5A5",
"`  c #B1ABA5",
"'  c #B1B1A8",
"]  c #A8A8B7",
"[  c #B2ACB2",
"{  c #A5B1B1",
"}  c #B2B3B2",
"|  c #D7B789",
" . c #DCBD9F",
".. c #E0B798",
"X. c #C2B1A5",
"o. c #C2BDBD",
"O. c #D7BDB7",
"+. c #F3CD8A",
"@. c #EAC891",
"#. c #F2CD91",
"$. c #F3CD98",
"%. c #F2D197",
"&. c #F3D299",
"*. c #FBD79F",
"=. c #FBDB9E",
"-. c #F7D7A8",
";. c #E0C7BD",
":. c #E0D2B1",
">. c #F6DBB7",
",. c #FBE0AB",
"<. c #F7E0BD",
"1. c #81B1CC",
"2. c #9FBDCD",
"3. c #89ABD2",
"4. c #A5B1CC",
"5. c #B1BDD2",
"6. c #98BAE2",
"7. c #BDC2C8",
"8. c #89CAEE",
"9. c #91CDEE",
"0. c #98D2E0",
"q. c #98CDF2",
"w. c #9AD3F5",
"e. c #A8DCF9",
"r. c #B7DBF6",
"t. c #CDC8C3",
"y. c #DBD7C2",
"u. c #C7D6D6",
"i. c #DBD7D7",
"p. c #D4D4D9",
"a. c #DBDBDB",
"s. c #F6E0C2",
"d. c #FFF6CD",
"f. c #FFFED2",
"g. c #FFFBD7",
"h. c #D7DCE1",
"j. c #DCE1E5",
"k. c #D1E9F6",
"l. c #C7F2FF",
"z. c #CCF3FF",
"x. c #D7F9FF",
"c. c #E4E4E3",
"v. c #E8E8E6",
"b. c #ECECEC",
"n. c #FFFDE2",
"m. c #F9F8EC",
"M. c #FFFFEE",
"N. c #E1EAF3",
"B. c #E2F7FB",
"V. c #EAF3FB",
"C. c #EDFFFF",
"Z. c #F4F4F3",
"A. c #FBF7F7",
"S. c #FFFFF3",
"D. c #F3FEFF",
"F. c #FFFFFF",
/* pixels */
"F.F.F.F.F.F.F.F.F.F.F.F.F.F.F.F.F.F.F.F.F.F.F.F.F.F.F.F.F.F.F.F.F.F.F.F.F.F.F.F.F.F.F.F.F.F.F.F.F.F.F.F.F.F.F.F.F.F.F.F.F.F.F.F.F.F.F.F.",
"F.F.F.F.F.F.F.F.F.F.F.F.F.F.F.F.F.F.F.F.F.F.F.F.F.F.F.F.F.F.F.F.F.F.F.F.F.F.F.F.F.F.F.F.F.F.F.F.F.F.F.F.F.F.F.F.F.F.F.F.F.F.F.F.F.F.F.F.",
"F.F.F.F.F.F.F.F.F.F.F.F.F.F.F.F.F.F.F.F.F.F.F.F.F.F.F.F.F.F.F.F.F.F.F.F.F.F.F.F.F.F.F.F.F.F.F.F.F.F.F.F.F.F.F.F.F.F.F.F.F.F.F.F.F.F.F.F.",
"F.F.F.F.F.F.F.F.F.F.F.F.F.F.F.F.F.F.F.F.F.F.F.F.F.F.F.F.F.F.F.F.F.F.F.F.F.F.F.F.F.F.F.F.F.F.F.F.F.F.F.F.F.F.F.F.F.F.F.F.F.F.F.F.F.F.F.F.",
"F.F.F.F.F.F.F.F.F.F.F.F.F.F.F.F.F.F.F.F.F.F.F.F.F.F.F.F.F.F.F.F.F.F.F.F.F.F.F.F.F.F.F.F.F.F.F.F.F.F.F.F.F.F.F.F.F.F.F.F.F.F.F.F.F.F.F.F.",
"F.F.F.F.F.F.F.F.F.F.F.F.F.F.F.F.F.F.F.F.F.F.F.F.F.F.F.F.F.F.F.F.F.F.F.F.F.F.F.F.F.F.F.F.F.F.F.F.F.F.F.F.F.F.F.F.F.F.F.F.F.F.F.F.F.F.F.F.",
"F.F.F.F.F.F.F.F.F.F.F.F.F.F.F.F.F.F.F.F.F.F.F.F.F.F.F.F.F.F.F.F.F.F.F.F.F.F.F.F.F.F.F.F.F.F.F.F.F.F.F.F.F.F.F.O.} 5.F.F.F.F.F.F.F.F.F.F.",
"F.F.F.F.F.F.F.F.F.F.F.F.F.F.F.F.F.F.F.F.F.F.F.F.F.F.F.F.F.F.F.F.F.F.F.F.F.F.F.F.F.F.F.F.F.F.F.F.F.F.F.F.F.F.S.q   c C.F.F.F.F.F.F.F.F.F.",
"F.F.F.F.F.F.F.F.s.s ^ D.F.F. .0 6.g.E B r.F.F.<.B C x.F.F.F.F.F.F.F.F.F.F.F.F.F.Z.Z.Z.Z.Z.Z.Z.Z.Z.Z.Z.D.F.F.S.t   b D.F.F.F.F.F.F.F.F.F.",
"F.F.F.F.F.F.F.F.g   v C.F.M.e   J f.@   9.F.F.#.  = z.F.F.F.F.F.F.F.F.F.F.F.F.d.O                     8.F.F.S.t   b D.F.F.F.F.F.F.F.F.F.",
"F.F.F.F.F.F.F.F.k   b C.F.S.u   L f.+   9.F.F.%.  - z.F.F.F.F.F.F.F.F.F.F.F.F.d.#                     9.F.F.M.t   b D.F.F.F.F.F.F.F.F.F.",
"F.F.F.F.F.F.F.F.k   n F.F.S.t   P f.+   w.F.F.*.  ; z.F.F.F.F.F.F.F.F.F.F.F.F.d.#   F F.A.Z.A.F.@.    9.F.F.A.u   b D.F.F.F.F.F.F.F.F.F.",
"F.F.F.F.F.F.F.F.j   X 5 6 4 .   L f.+     7 5 *   - z.F.F.F.F.F.F.F.F.F.F.F.F.d.#   G F.F.F.F.F.%.    9.F.F.S.t   b D.F.F.F.F.F.F.F.F.F.",
"F.F.F.F.F.F.F.F.k               L f.+             - z.F.F.F.F.F.F.F.F.F.F.F.F.d.#   H F.F.F.F.F.%.    9.F.F.S.t   b D.F.F.F.F.F.F.F.F.F.",
"F.F.F.F.F.F.F.F.k   2 u.p.y.$   L f.+   I a.p.l   ; z.F.F.F.F.F.F.F.F.F.F.F.F.d.#   H F.F.F.F.F.%.    9.F.F.S.t   b D.F.F.F.F.F.F.F.F.F.",
"F.F.F.F.F.F.F.F.k   n D.F.F.t   L f.@   w.F.F.*.  - z.F.F.F.F.F.F.F.F.F.F.F.F.d.#   H F.F.F.F.F.%.    9.F.F.S.t   b D.F.F.F.F.F.F.F.F.F.",
"F.F.F.F.F.F.F.F.k   n D.F.S.t   P f.+   w.F.F.*.  - z.F.F.F.F.F.F.F.F.F.F.F.F.d.#   G F.F.F.F.F.%.    9.F.F.S.t   c D.F.F.F.F.F.F.F.F.F.",
"F.F.F.F.F.F.F.F.k   < { } ' %   L f.@   m } } f   ; z.F.F.F.F.F.F.F.F.F.F.F.F.d.#   G F.F.F.F.F.%.    9.F.F.S.t   n D.F.F.F.F.F.F.F.F.F.",
"F.F.F.F.F.F.F.F.h               J f.O             = l.F.F.F.F.F.F.F.F.F.F.F.F.d.#   G F.F.F.F.F.&.    9.F.F.A.t   b D.F.F.F.F.F.F.F.F.F.",
"F.F.F.F.F.F.F.F...N Y Y Y Y Y s 6.S.! V Y Y Y Y d A C.F.F.F.F.F.F.F.F.F.F.F.F.d.#   G F.F.F.F.F.%.    9.F.F.S.u   b D.F.F.F.F.F.F.F.F.F.",
"F.F.F.F.F.F.F.F.F.F.F.F.F.F.F.g.p > e.F.F.F.F.F.F.F.F.F.F.F.F.F.F.F.F.F.F.F.F.d.#   L F.F.F.F.F.&.    9.F.F.S.t   b D.F.F.F.F.F.F.F.F.F.",
"F.F.F.F.F.F.F.F.F.F.F.F.F.F.F.d.@   9.F.F.F.F.F.F.F.F.F.F.F.F.F.F.F.F.F.F.F.F.d.#   n v.c.c.c.v.|     9.F.F.S.t   b D.F.F.F.F.F.F.F.F.F.",
"F.F.F.F.F.F.F.F.F.F.F.F.F.F.F.d.#   9.F.F.F.F.F.F.F.F.F.F.F.F.F.F.F.F.F.F.F.F.d.+                     9.F.F.S.t   b D.F.F.F.F.F.F.F.F.F.",
"F.F.F.F.F.F.F.F.F.F.F.F.F.F.F.d.#   w.F.F.F.F.F.F.F.F.F.F.F.F.F.F.F.F.F.F.F.F.n.w X o o o o o o o X   q.F.F.S.y   b D.F.F.F.F.F.F.F.F.F.",
"F.F.F.F.F.F.F.c.a.a.a.a.a.a.j.:.+   1.c.a.a.a.a.a.a.a.j.F.F.F.F.F.F.F.F.F.F.F.F.F.F.F.F.F.F.F.F.F.F.F.F.F.F.S.t   b D.F.F.F.F.F.F.F.F.F.",
"F.F.F.F.F.F.-.                                        x C.F.F.F.F.F.F.F.F.F.F.F.F.F.F.F.F.F.F.F.F.F.F.F.F.F.S.t   b D.F.F.F.F.F.F.F.F.F.",
"F.F.F.F.F.F.&.  o o o o o o o o o o o o o o o o o o . Z F.F.F.F.F.F.F.F.F.F.F.F.F.F.F.F.F.F.F.F.F.F.F.F.F.F.S.t   b D.F.F.F.F.F.F.F.F.F.",
"F.F.F.F.F.F.F.F.F.F.F.F.F.F.F.F.F.F.F.F.F.F.F.F.F.F.F.F.F.F.F.F.F.F.F.F.F.F.F.F.F.F.F.F.F.F.F.F.F.F.F.F.F.F.S.y   b D.F.F.F.F.F.F.F.F.F.",
"F.F.F.F.F.F.F.F.F.F.F.F.F.F.F.F.F.F.F.F.F.F.F.F.F.F.F.F.F.F.F.F.F.F.F.F.F.F.F.F.F.F.F.F.F.F.F.F.F.F.F.F.F.F.M.r   v C.F.F.F.F.F.F.F.F.F.",
"F.F.F.F.F.F.F.F.F.F.F.F.F.F.F.F.F.F.F.F.F.F.F.F.F.F.F.F.F.F.F.F.F.F.F.F.F.F.F.F.F.F.F.F.F.F.F.F.F.F.F.F.F.F.F.z 6 S D.F.F.F.F.F.F.F.F.F.",
"F.F.F.F.F.F.F.F.F.F.F.F.F.F.F.F.F.F.F.F.F.F.F.F.F.F.F.F.F.F.F.F.F.F.F.F.F.F.F.F.F.F.F.F.F.F.F.F.F.F.F.F.F.F.F.F.F.F.F.F.F.F.F.F.F.F.F.F.",
"F.F.F.F.F.F.F.F.F.F.F.F.F.F.F.F.F.F.F.F.F.F.F.F.F.F.F.F.F.F.F.F.F.F.F.F.F.F.F.F.F.F.F.F.F.F.F.F.F.F.F.F.F.F.F.F.F.F.F.F.F.F.F.F.F.F.F.F.",
"F.F.F.F.F.F.F.F.F.F.F.F.F.F.F.F.F.F.F.F.F.F.F.F.F.F.F.F.F.F.F.F.F.F.F.F.F.F.F.F.F.F.F.F.F.F.F.F.F.F.F.F.F.F.F.F.F.F.F.F.F.F.F.F.F.F.F.F.",
"F.F.F.F.F.F.F.F.F.F.F.F.F.F.F.F.F.F.F.F.F.F.F.F.F.F.F.F.F.F.F.F.F.F.F.F.F.F.F.F.F.F.F.F.F.F.F.F.F.F.F.F.F.F.F.F.F.F.F.F.F.F.F.F.F.F.F.F.",
"F.F.F.F.F.F.F.F.F.F.F.F.F.F.F.F.F.F.F.F.F.F.F.F.F.F.F.F.F.F.F.F.F.F.F.F.F.F.F.F.F.F.F.F.F.F.F.F.F.F.F.F.F.F.F.F.F.F.F.F.F.F.F.F.F.F.F.F.",
"F.F.F.F.F.F.F.F.F.F.F.F.F.F.F.F.F.F.F.F.F.F.F.F.F.F.F.F.F.F.F.F.F.F.F.F.F.F.F.F.F.F.F.F.F.F.F.F.F.F.F.F.F.F.F.F.F.F.F.F.F.F.F.F.F.F.F.F.",
"F.F.F.F.F.F.F.F.F.F.F.F.F.F.F.F.F.F.F.F.F.F.F.F.F.F.F.F.F.F.F.F.F.F.F.F.F.F.F.F.F.F.F.F.F.F.F.F.F.F.F.F.F.F.F.F.F.F.F.F.F.F.F.F.F.F.F.F.",
"F.F.F.F.F.F.F.F.F.F.F.F.F.F.F.F.F.F.F.F.F.F.F.F.F.F.F.F.F.F.F.F.F.F.F.F.F.F.F.F.F.F.F.F.F.F.F.F.F.F.F.F.F.F.F.F.F.F.F.F.F.F.F.F.F.F.F.F.",
"F.F.F.F.F.F.F.F.F.F.F.F.F.F.F.F.F.F.F.F.F.F.F.F.F.F.F.F.F.F.F.F.F.F.F.F.F.F.F.F.F.F.F.F.F.F.F.F.F.F.F.F.F.F.F.F.F.F.F.F.F.F.F.F.F.F.F.F.",
"F.F.F.F.F.F.F.F.F.F.F.F.F.F.F.F.F.F.F.F.F.F.F.F.F.F.F.F.F.F.F.F.F.F.F.F.F.F.F.F.F.F.F.F.F.F.F.F.F.F.F.F.F.F.F.F.F.F.F.F.F.F.F.F.F.F.F.F.",
"F.F.F.F.F.F.F.F.F.F.F.F.F.F.F.F.F.F.F.A.A.D.F.F.;.[ k.F.F.F.F.F.F.F.F.F.F.F.F.F.F.F.F.F.F.F.F.F.F.F.F.F.F.F.F.F.F.F.F.F.F.F.F.F.F.F.F.F.",
"F.F.F.F.F.F.F.F.F.F.F.F.F.F.F.F.F.F.S.q   J F.d.O   8.F.F.F.F.F.F.F.F.F.F.F.F.F.F.F.F.F.F.F.F.F.F.F.F.F.F.F.F.F.F.F.F.F.F.F.F.F.F.F.F.F.",
"F.F.F.F.F.F.F.n.~ ( _ _ _ _ _ _ / x.S.t   H F.d.#   9.F.F.F.F.F.F.F.F.F.F.F.F.F.F.m.c.v.v.b.b.v.v.v.v.v.v.b.v.c.V.F.F.F.F.F.F.F.F.F.F.F.",
"F.F.F.F.F.F.F.+.                = z.S.u   G F.d.#   9.F.F.F.F.F.F.F.F.F.F.F.F.F.F.g                             : x.F.F.F.F.F.F.F.F.F.F.",
"F.F.F.F.F.F.F.>.T R R R R W &   - z.S.t   H F.d.#   9.F.F.F.F.F.F.F.F.F.F.F.F.F.F.j                             - l.F.F.F.F.F.F.F.F.F.F.",
"F.F.F.F.F.F.F.F.F.F.F.F.F.F.=.  - z.S.y   G F.d.#   9.F.F.F.F.F.F.F.F.F.F.F.F.F.F.j   b C.F.F.F.F.F.F.F.F.F.F.F.F.F.F.F.F.F.F.F.F.F.F.F.",
"F.F.F.F.F.F.F.F.F.F.F.F.F.F.*.  - z.S.t   K F.f.#   9.F.F.F.F.F.F.F.F.F.F.F.F.F.F.j   b D.F.F.F.F.F.F.F.F.F.F.F.F.F.F.F.F.F.F.F.F.F.F.F.",
"F.F.F.F.F.F.F.<.B R R R R R a   - z.S.t   1 0 8     9.F.F.F.F.F.F.F.F.F.F.F.F.F.F.j   b D.F.F.F.F.F.F.F.F.F.F.F.F.F.F.F.F.F.F.F.F.F.F.F.",
"F.F.F.F.F.F.F.#.                = z.S.t             9.F.F.F.F.F.F.F.F.F.F.F.F.F.F.k   b D.F.F.F.F.F.F.F.F.F.F.F.F.F.F.F.F.F.F.F.F.F.F.F.",
"F.F.F.F.F.F.F.%.  X ) } } } } ' ] B.S.t   M } ~ O   9.F.F.F.F.F.F.F.F.F.F.F.F.F.F.k   b D.F.F.F.F.F.F.F.F.F.F.F.F.F.F.F.F.F.F.F.F.F.F.F.",
"F.F.F.F.F.F.F.%.  : x.F.F.F.F.F.F.F.S.t   L F.f.#   9.F.F.F.F.F.F.F.F.F.F.F.F.F.F.k   m D.F.F.F.F.F.F.F.F.F.F.F.F.F.F.F.F.F.F.F.F.F.F.F.",
"F.F.F.F.F.F.F.%.  ; z.F.F.F.F.F.F.F.M.y   G F.d.#   9.F.F.F.F.F.F.F.F.F.F.F.F.F.F.k   c x.b.b.b.b.b.b.b.Z.b.b.b.b.D.F.F.F.F.F.F.F.F.F.F.",
"F.F.F.F.F.F.F.%.  = 2.t.o.` Q s 4   0.i   G F.d.#   9.F.F.F.F.F.F.F.F.F.F.F.F.F.F.k                               8.F.F.F.F.F.F.F.F.F.F.",
"F.F.F.F.F.F.F.%.                    0.i   G F.d.#   9.F.F.F.F.F.F.F.F.F.F.F.F.F.F.k                               9.F.F.F.F.F.F.F.F.F.F.",
"F.F.F.F.F.F.F.-.3 7 7 9 0 0 W ] 7.h.m.t   G F.d.#   9.F.F.F.F.F.F.F.F.F.F.F.F.F.F.F.A.F.A.F.F.A.F.A.A.A.F.A.F.A.A.F.F.F.F.F.F.F.F.F.F.F.",
"F.F.F.F.F.F.F.F.F.F.F.v.V.F.F.F.F.F.S.t   G F.d.#   9.F.F.F.F.F.F.F.F.F.F.F.F.F.F.F.F.F.F.F.F.F.F.F.F.F.F.F.F.F.F.F.F.F.F.F.F.F.F.F.F.F.",
"F.F.F.F.F.F.F.F.F.F.#.    e.F.F.F.F.S.u   D F.d.#   8.F.F.F.F.F.F.F.F.F.F.F.F.F.F.F.F.F.F.F.F.F.F.F.F.F.F.F.F.F.F.F.F.F.F.F.F.F.F.F.F.F.",
"F.F.F.F.F.F.F.F.F.F.%.    9.F.F.F.F.F.m.i.N.F.d.@   9.F.F.F.F.F.F.F.F.F.F.F.F.F.F.F.F.F.F.F.F.F.F.F.F.F.F.F.F.F.F.F.F.F.F.F.F.F.F.F.F.F.",
"F.F.F.F.F.F.F.F.F.F.%.    9.F.F.F.F.F.F.F.F.F.F.A.A.F.F.F.F.F.F.F.F.F.F.F.F.M.X._ _ _ _ _ _ _ _ _ _ _ _ _ _ _ _ _ _ _ 4.D.F.F.F.F.F.F.F.",
"F.F.F.F.F.F.F.F.F.F.%.    q.F.F.F.F.F.F.F.F.F.F.F.F.F.F.F.F.F.F.F.F.F.F.F.F.#.                                        x D.F.F.F.F.F.F.F.",
"F.F.F.F.F.F.F.F.F.F.%.    U Z.b.b.b.Z.b.b.Z.b.b.b.b.D.F.F.F.F.F.F.F.F.F.F.F.>.0 Y Y Y Y Y Y Y Y Y Y Y Y Y Y Y Y Y d 0 3.F.F.F.F.F.F.F.F.",
"F.F.F.F.F.F.F.F.F.F.$.                              , x.F.F.F.F.F.F.F.F.F.F.F.F.F.F.F.F.F.F.F.F.F.F.F.F.F.F.F.F.F.F.F.F.F.F.F.F.F.F.F.F.",
"F.F.F.F.F.F.F.F.F.F.,.                              = z.F.F.F.F.F.F.F.F.F.F.F.F.F.F.F.F.F.F.F.F.F.F.F.F.F.F.F.F.F.F.F.F.F.F.F.F.F.F.F.F.",
"F.F.F.F.F.F.F.F.F.F.F.F.A.F.A.F.A.F.A.F.A.F.A.F.A.F.A.F.F.F.F.F.F.F.F.F.F.F.F.F.F.F.F.F.F.F.F.F.F.F.F.F.F.F.F.F.F.F.F.F.F.F.F.F.F.F.F.F.",
"F.F.F.F.F.F.F.F.F.F.F.F.F.F.F.F.F.F.F.F.F.F.F.F.F.F.F.F.F.F.F.F.F.F.F.F.F.F.F.F.F.F.F.F.F.F.F.F.F.F.F.F.F.F.F.F.F.F.F.F.F.F.F.F.F.F.F.F.",
"F.F.F.F.F.F.F.F.F.F.F.F.F.F.F.F.F.F.F.F.F.F.F.F.F.F.F.F.F.F.F.F.F.F.F.F.F.F.F.F.F.F.F.F.F.F.F.F.F.F.F.F.F.F.F.F.F.F.F.F.F.F.F.F.F.F.F.F.",
"F.F.F.F.F.F.F.F.F.F.F.F.F.F.F.F.F.F.F.F.F.F.F.F.F.F.F.F.F.F.F.F.F.F.F.F.F.F.F.F.F.F.F.F.F.F.F.F.F.F.F.F.F.F.F.F.F.F.F.F.F.F.F.F.F.F.F.F.",
"F.F.F.F.F.F.F.F.F.F.F.F.F.F.F.F.F.F.F.F.F.F.F.F.F.F.F.F.F.F.F.F.F.F.F.F.F.F.F.F.F.F.F.F.F.F.F.F.F.F.F.F.F.F.F.F.F.F.F.F.F.F.F.F.F.F.F.F.",
"F.F.F.F.F.F.F.F.F.F.F.F.F.F.F.F.F.F.F.F.F.F.F.F.F.F.F.F.F.F.F.F.F.F.F.F.F.F.F.F.F.F.F.F.F.F.F.F.F.F.F.F.F.F.F.F.F.F.F.F.F.F.F.F.F.F.F.F.",
"F.F.F.F.F.F.F.F.F.F.F.F.F.F.F.F.F.F.F.F.F.F.F.F.F.F.F.F.F.F.F.F.F.F.F.F.F.F.F.F.F.F.F.F.F.F.F.F.F.F.F.F.F.F.F.F.F.F.F.F.F.F.F.F.F.F.F.F.",
"F.F.F.F.F.F.F.F.F.F.F.F.F.F.F.F.F.F.F.F.F.F.F.F.F.F.F.F.F.F.F.F.F.F.F.F.F.F.F.F.F.F.F.F.F.F.F.F.F.F.F.F.F.F.F.F.F.F.F.F.F.F.F.F.F.F.F.F.",
"F.F.F.F.F.F.F.F.F.F.F.F.F.F.F.F.F.F.F.F.F.F.F.F.F.F.F.F.F.F.F.F.F.F.F.F.F.F.F.F.F.F.F.F.F.F.F.F.F.F.F.F.F.F.F.F.F.F.F.F.F.F.F.F.F.F.F.F.",
"F.F.F.F.F.F.F.F.F.F.F.F.F.F.F.F.F.F.F.F.F.F.F.F.F.F.F.F.F.F.F.F.F.F.F.F.F.F.F.F.F.F.F.F.F.F.F.F.F.F.F.F.F.F.F.F.F.F.F.F.F.F.F.F.F.F.F.F.",
"F.F.F.F.F.F.F.F.F.F.F.F.F.F.F.F.F.F.F.F.F.F.F.F.F.F.F.F.F.F.F.F.F.F.F.F.F.F.F.F.F.F.F.F.F.F.F.F.F.F.F.F.F.F.F.F.F.F.F.F.F.F.F.F.F.F.F.F."
};
