/* XPM */
static char *_1c4507195454a94cd2d913663a17442[] = {
/* columns rows colors chars-per-pixel */
"64 64 256 2 ",
"   c #150C05",
".  c #15120C",
"X  c #1B140B",
"o  c #1B180D",
"O  c #161106",
"+  c #191613",
"@  c #1D1B13",
"#  c #181714",
"$  c #0A0907",
"%  c #24180C",
"&  c #221D12",
"*  c #281F13",
"=  c #311C13",
"-  c #361408",
";  c #1E2215",
":  c #232115",
">  c #2A2316",
",  c #25241A",
"<  c #2B251A",
"1  c #2C291C",
"2  c #322B1C",
"3  c #37261A",
"4  c #3B321D",
"5  c #2E2C21",
"6  c #282522",
"7  c #372C22",
"8  c #343323",
"9  c #3B3324",
"0  c #3B382A",
"q  c #3B3C33",
"w  c #2E3023",
"e  c #422A1B",
"r  c #49331E",
"t  c #59361C",
"y  c #453A2C",
"u  c #4C3B2D",
"i  c #463625",
"p  c #573B29",
"a  c #533C32",
"s  c #45332A",
"d  c #61371C",
"f  c #3F4032",
"g  c #47442B",
"h  c #54432D",
"j  c #5B442E",
"k  c #484737",
"l  c #524233",
"z  c #5B4433",
"x  c #5E4B3A",
"c  c #5A4937",
"v  c #595238",
"b  c #68472C",
"n  c #774C2C",
"m  c #76522D",
"M  c #654C35",
"N  c #6B4B33",
"B  c #634D3C",
"V  c #6B4D3C",
"C  c #664637",
"Z  c #724D3B",
"A  c #774E35",
"S  c #65533B",
"D  c #6C533C",
"F  c #685638",
"G  c #745235",
"H  c #7C5435",
"J  c #74543C",
"K  c #7B543B",
"L  c #7D5B3D",
"P  c #785A39",
"I  c #68502F",
"U  c #75633D",
"Y  c #68623F",
"T  c #4C4C43",
"R  c #545342",
"E  c #5A584A",
"W  c #5A544C",
"Q  c #655342",
"!  c #6C5443",
"~  c #695A46",
"^  c #735544",
"/  c #7A5543",
"(  c #755B43",
")  c #7C5C45",
"_  c #755B4B",
"`  c #7C5D4B",
"'  c #765748",
"]  c #725446",
"[  c #68654B",
"{  c #7D624B",
"}  c #776648",
"|  c #6B6857",
" . c #7D6353",
".. c #746958",
"X. c #797359",
"o. c #7D704C",
"O. c #797869",
"+. c #77726C",
"@. c #835C3C",
"#. c #865938",
"$. c #945D38",
"%. c #87643D",
"&. c #96653D",
"*. c #AA6D3F",
"=. c #825C44",
"-. c #825E4A",
";. c #8A5D47",
":. c #8B5E4C",
">. c #846343",
",. c #8C6344",
"<. c #84634C",
"1. c #8B644B",
"2. c #846A4C",
"3. c #8C6B4B",
"4. c #8A6A45",
"5. c #946443",
"6. c #976A49",
"7. c #98724B",
"8. c #846252",
"9. c #8B6652",
"0. c #8C6B54",
"q. c #886A57",
"w. c #936C53",
"e. c #966B56",
"r. c #877758",
"t. c #9C7354",
"y. c #9C745B",
"u. c #9C7C5A",
"i. c #967658",
"p. c #86744E",
"a. c #A86C49",
"s. c #A4744D",
"d. c #AA734A",
"f. c #A47859",
"g. c #B57C59",
"h. c #887763",
"j. c #987966",
"k. c #917B70",
"l. c #A37A64",
"z. c #A77B66",
"x. c #BD7E60",
"c. c #97845B",
"v. c #A8835A",
"b. c #B7865A",
"n. c #8A8368",
"m. c #97896A",
"M. c #968975",
"N. c #908C79",
"B. c #AB8766",
"V. c #BB8B6D",
"C. c #B68866",
"Z. c #B9936B",
"A. c #A78875",
"S. c #A59678",
"D. c #B79978",
"F. c #B48F6F",
"G. c #B7A37C",
"H. c #ABA27F",
"J. c #C58C5B",
"K. c #C58C69",
"L. c #C89769",
"P. c #D4976C",
"I. c #CC9473",
"U. c #CB9B7C",
"Y. c #C59874",
"T. c #D49B7A",
"R. c #D79B78",
"E. c #C98D72",
"W. c #E49E68",
"Q. c #C9A17D",
"!. c #D9A47A",
"~. c #E4A77C",
"^. c #F1AA74",
"/. c #8B8A85",
"(. c #98958A",
"). c #9A9A98",
"_. c #A99C88",
"`. c #B89A8A",
"'. c #ABA48A",
"]. c #B4A888",
"[. c #ABA295",
"{. c #B7A996",
"}. c #BCB59C",
"|. c #B4B085",
" X c #B4ADA1",
".X c #B9B4A9",
"XX c #BDBCB6",
"oX c #C89B84",
"OX c #D19E81",
"+X c #C7A786",
"@X c #DCA485",
"#X c #DBAC85",
"$X c #D7A788",
"%X c #D8B38A",
"&X c #C3AB99",
"*X c #C3B799",
"=X c #D8B998",
"-X c #D4AB91",
";X c #E5AA87",
":X c #E3B48B",
">X c #EBB48C",
",X c #E8B488",
"<X c #ECB495",
"1X c #EEBB9B",
"2X c #E8B698",
"3X c #F5BD9B",
"4X c #F6BA96",
"5X c #F0B08A",
"6X c #C6BBA9",
"7X c #CDB8AE",
"8X c #EBBDA4",
"9X c #F2BEA3",
"0X c #BFC0BC",
"qX c #F8C29C",
"wX c #E6C19C",
"eX c #D6C9A9",
"rX c #CAC5B6",
"tX c #D4C7B9",
"yX c #DBD3BA",
"uX c #CEC4A5",
"iX c #E9C6A9",
"pX c #F4C2A5",
"aX c #F4C4AB",
"sX c #FAC6AB",
"dX c #FBCBAD",
"fX c #F8C7A6",
"gX c #FAD2AE",
"hX c #E8CBB8",
"jX c #FBCCB3",
"kX c #F5CAB5",
"lX c #FDD3BB",
"zX c #FBD6B8",
"xX c #E6D8B0",
"cX c #F3EABF",
"vX c #CCCBC6",
"bX c #DBD5C6",
"nX c #DBDAD5",
"mX c #DACEC4",
"MX c #E2D9CD",
"NX c #FEDAC2",
"BX c #FDDCC9",
"VX c #F9D5C4",
"CX c #E6DDD4",
"ZX c #FAE2CA",
"AX c #E8E4DB",
"SX c #FAE6D7",
"DX c #F7EFCF",
"FX c #EDEBE7",
"GX c #F2ECE4",
"HX c #FBEDE5",
"JX c #F5F2EC",
"KX c #FBF4EC",
"LX c #FDFAF4",
"PX c #FFFFFF",
"IX c #F8F5F2",
"UX c #EFF0EE",
/* pixels */
"PXPXPXPXPXPXPXPXPXPXPXPXPXPXPXPXPXPXPXPXPXPXPXPXPXPXPXPXPXPXPXPXPXPXPXPXPXPXPXPXPXPXPXPXPXPXPXPXPXPXPXPXPXPXPXPXPXPXPXPXPXPXPXPX",
"PXPXPXPXPXPXPXPXPXPXPXPXPXPXPXPXPXPXPXPXPXPXPXPXPXPXPXPXPXPXLXPXPXPXPXPXPXPXPXPXPXPXPXPXPXPXPXPXPXPXPXPXPXPXPXPXPXPXPXPXPXPXPXPX",
"PXPXPXPXPXPXPXPXPXPXPXPXPXPXPXPXPXPXPXPXIXUXFXUXAXCXrXvX0X.XDXyX.XrXCXvXFXUXFXIXPXPXPXPXPXPXPXPXPXPXPXPXPXPXPXPXPXPXPXPXPXPXPXPX",
"PXPXPXPXPXPXPXPXPXPXPXPXPXPXPXPXPXPXUX0X)./.vX Xn.E R +.O.uXuXc.o.*XS.'.6X| E O..X0XAXPXPXPXPXPXPXPXPXPXPXPXPXPXPXPXPXPXPXPXPXPX",
"PXPXPXPXPXPXPXPXPXPXPXPXPXGXnXnXrX.X/.T R '.eX| k 8 k f '.cXc.p.o.'.X.|...o < k T T | /.0XnXIXPXPXIXPXPXPXPXPXPXPXPXPXPXPXPXPXPX",
"PXPXPXPXPXPXPXPXPXPXPXIXbX6X6XeXN.[ f E | bXn.v 8 E k [ cXH.p.o.'.O.H.| > w k k q k k f T O.(.vXUXPXPXPXPXPXPXPXPXPXPXPXPXPXPXPX",
"PXPXPXPXPXPXPXPXLXLXAX6X}.uXG.S.X.g f R rX'.[ 0 k k w G.H.Y g 4 X.[ O.0 , , k q f w k R O.O.O.+.+.vXPXPXPXPXPXPXPXPXPXPXPXPXPXPX",
"PXPXPXPXPXPXPXPXKXmX[.S.].*Xn.[ w , 0 R }.R 8 & < 1 w Y g g O ; k g f ; # ; w w 0 w 0 k | X.X.| E +.vXPXPXPXPXPXPXPXPXPXPXPXPXPX",
"PXPXPXPXPXPXPXJXrX{.N.yXeXxXbXO.8 w : k O.0 : o O 1 2 0 w & O o 0 1 > o   & , * , * 7 k R g f v T T /.FXPXIXPXPXPXPXPXPXPXPXPXPX",
"PXPXPXPXPXPXIXXXN.eXxXDXcXDXxX[ q w + w g 8 : O O : < 2 1 > o O w ; : O   + X & . + 5 8 < : : 2 q q T XXLXPXPXPXPXPXPXPXPXPXPXPX",
"PXPXPXPXPXPXnX'.].eXeX*XeXxX|.X.8 ; @ + ; , , ; o o & > > > >   & % X o   X   X     X . . * 5 , , 6 @ W nXPXPXPXPXPXPXPXPXPXPXPX",
"PXPXPXPXPXJX}.N.n.}.cX].c.c.m.| 0 , # + @ : < 1 w 1 > * > > < % O % % X X % X + .     . @ , @ @ # # @ 6 /.UXPXPXPXPXPXPXPXPXPXPX",
"PXPXPXLXPXCX}._.o.[ }.eXH.r.o.[ k < @ o X o 2 2 0 k i 4 i 9 i y 4 3 3 7 9 e 7 7 3 3 * X X @ @ @ # # . # T vXPXPXPXPXPXPXPXPXPXPX",
"PXPXPXPXUXyX|.X.v R g [ n.m.n.Y g 4 > & o 1 4 0 h v M j B V D V V V c c x x z z a a s 3 % & : @ # $ $ $ 6 ).PXPXPXPXPXPXPXPXPXPX",
"PXPXPXPXAX|.S.o.v v 0 8 4 v Y v g r 4 9 4 h Y c U { 2.i.j.0.0.0.9. .] ] ! V ! ] Q C z a 9 > : & # # $ $ # +.UXPXPXPXPXPXPXPXPXPX",
"PXPXPXLXrXm.n.X.| E v [ Y Y o.o.} U ( F F U p.{ F.f.f.A.z.y.l.z.z.l.l.y.9./ ] Z ] ! V Q z s 2 , ; # # . . W nXPXPXPXPXPXPXPXPXPX",
"PXPXPXIX6Xm.S.m.m.r.X.n.c.S.G.uXQ.G.Q.v.p.2.r.u.iXz.V.F.oX-X-X$X$X;X@XT.V.l.8.` ' ' ] ] Q c s 7 6 ; # # . q 0XPXPXPXPXPXPXPXPXPX",
"PXPXPXJX}.n.n.X.o.Y n.G.S.Z.%XxXwXwXQ.v.u.B.u.-X+XV.$XU.sXfX;X$X;X@X!.R.I.V.y.:./ ` ' ' ] Q c q 0 6 + # . 6 ).PXPXPXPXPXPXPXPXPX",
"PXPXPXGX].n.o.n.c.c.|.%XQ.%X%X!.xXcX4XZ.Y.Z.v.Y.z.oXoXaXsX2XOXE.@X@X!.T.E.A.y.1.:.-.-.' ] ] Q a 0 w 1 : # 6 /.IXPXPXPXPXPXPXPXPX",
"PXPXPXGXeX|.H.c.c.S.%X%XwX%X%X%X!.:XL.Z.Q.Z.Z.OX;XOX-XaXaX9X$XT.$X@XR.E.V.z.y.9.9.8.` ` ' _ ] B y 8 9 6 6 6 | GXPXPXPXPXPXPXPXPX",
"PXPXPXFX}.S.c.c.B.G.Q.%X%X:X,XfX3XR.f.T.U.$X2X=X-X2X8X9XsX9X;XI.E.I.I.I.E.x.y.t.9.8.-.` ` ' _ _ B u y 9 5 6 q 0XPXPXPXPXPXPXPXPX",
"LXPXPXFX(.| o.S.G.Z.G.,X%X>X>X4XR.x.@X@X$XjXkXaXaXpX8X<X9X8X;XOXK.E.T.@XE.K.C.z.e.9.<.8.` _ ` _ ] B l y 9 5 6 +.FXPXPXPXPXPXPXPX",
"PXPXPXPX X[ X.o.c.c.G.!.qX~.~.!.K.R.3X9XaXkXlXaX9X1X1X2X9X9X3X;XR.R.@X;X@XR.E.V.z.y.9.9.` ` _  . .' V l s 7 6 q XXPXIXPXPXPXPXPX",
"PXPXPXPXnX| v Y U p.Z.~.,X!.,XP.@X4X3X9X9XkXkXkXlXdX9X9X9XaX9X2X@X@X~.@XOXE.V.V.z.y.f.j.e.8.-.8.8.8.{ D l 0 w , /.PXPXPXPXPXPXPX",
"PXPXPXPXUXn.k v Y 4.v.%X;X,X4X4X4XqXqXsXjXNXZXSXNXjX9X9X2X9X9X<X@XOXE.I.E.C.z.l.l.z.A.m.j.j. . .8.8.8.` Q s 8 , a .XIXPXPXPXPXPX",
"PXPXPXPXPX Xv h v } B.:X>X4XqXqXqXdXdXjXlXNXBXBXVXsX<X@X@X2X<X3X@XE.z.z.z.e.q.] ~ _ c B Q x B ! _ _ ` ` Q s 7 1 s 8.&XLXPXPXPXPX",
"PXPXPXLXPXMX| g v } c.Q.<X4X3XqXfXgXzXzXNXlXjXkXaX2X;X@XI.T.@X;XOXz.' B M u 9 3 3 2 3 i p h z x Q _ _  ._ u 3 > C :.-.tXPXPXPXPX",
"PXPXPXPXPXLX(.k I U 4.Z.,X4XqXpXqXfXjXlXVXlXlXkX2XOXI.E.E.K.V.K.x.e.] a p r i r i j J ) >.) ) ) ` ] '  . .c 5 , ] y./ q.CXPXPXPX",
"PXPXPXPXPXPXvX| v o.U Z.,X4XqXgXNXZXNXlXaX8X-Xz.e.8.) w.t.f.y.z.t.6.:.=.) =.H m A K @.=.=.,.;.=.-.` ` ` 8._ s < _ v.l./ `.IXPXPX",
"PXPXPXPXPXPXLX).v } U C.:XqXdXlXBXkX=X`.u.q.M r r u j b K =.e.e.w.e.t.y.6.K b r e = 3 3 e i M J J ' `  . .{ ] 9 u @.t.t.j.GXPXPX",
"PXPXPXPXPXPXPXnXX.v ( Z.wXqXfXiX-XB.2.M i 4 e p b A G m K ,.t.f.f.e.6.t.-.a e = = < s z _ _ J Z Z ] / ` { { 8.l r b n ;.y.mXPXPX",
"PXPXPXPXPXPXPXPX.Xv F G.gXfXpX+Xc.%.I M I I G P N b b A @.=.y.Q.E.s.7.0.J j s a V ( 9.0.1.<./ K -.8.8.8.8.8.8.D u B p Z q.7XPXLX",
"PXPXPXPXPXLXLXPXIXN.v B.dXdXpXF.4.>.1.9.@.M u 3 3 3 e i M ' Y.kX$XE.y.;.-.] C p C N N Z Z Z Z Z / -.9.q.q.9.8.~ a V j :.e.tXPXPX",
"PXPXPXPXPXPXPXPXPXCX_ } =XgXdXZ.@.v.f.b e = = 3 r r s u N i.kXSX9X@Xg.;.-.:.8.-./ / K Z Z Z Z ] ` -.9.0.0.0.<.~ u a Z y.k.CXPXPX",
"PXPXPXPXPXPXPXPXLXhXv.M `.zX1Xg.v.Z.n b V ! ' ` ] p p C 6.#XzXZX9X~.x.6.;.;.;.=.=./ -.-./ -.:.:.-.-.9.0.0.0.q. .a ! l.l.A.AXPXPX",
"PXPXPXPXPXPXPXPXPX=XL.B.f.gX9X;XR.L.#X;Xb.&.H n b Z e.F.<XqXfXZXaX;Xx.5.:.:.e.9.0.1.;.=.:.:.:.<.9.e.h.e.0.0.i.2.S ) i.l.&XUXPXPX",
"PXPXPXPXPXPXPXPXPX=X~.qXb.iXgXfXfXdX9X:XT.OX+XoX-XkXVXBXNXdXfXlXVX<XE.a.e.9.9.e.w.,.$.$.5.6.e.z.z.j.y.y.e.0.0.p._ D 0.A.MXLXPXPX",
"PXPXPXPXPXPXLXPXPXhX~.W.b.wXpXfXsXaXkXlXBXSXHXHXHXHXHXSXlXzXjXNXHXVX4X~.E.t.z.oXV.;.;.#.$.&.6.s.z.z.y.t.w.6.3.2.` ! i.rXIXPXPXPX",
"PXPXPXPXPXPXPXPXPXBX,XW.*.Z.iX<X4X4XfXaXkXlXVXBXVXVX8X$X-XzXlXNXIXIX4X5XK.a.g.E.g.5.e.,.n #.#.&.a.z.f.t.t.7.4.>.<.( k.AXPXLXPXPX",
"PXPXPXPXPXPXPXPXPXKXaX4XT.C.%X1X5X5X>X<X9XjXkXsX9X@Xg.a.9XZXNXsXVXkX!.K.g.t.6.s.d.5.;.>.;.A n #.5.s.f.f.7.5.4.1.2.( k.AXPXPXPXPX",
"PXPXPXPXPXPXPXPXPXIXSXkXZXZXQ.2X,X,X>XqX3XqX5X;XP.a.$.#.OXgXqX4X^.J.g.a.s.5.#.@.A A K / / / J I m %.6.f.5.>.4.>.{ _ h.CXPXPXPXPX",
"PXPXPXPXPXPXPXPXPXPXIXAXDXNX%X%X>X,X>X>X5X~.W.K.a.$.#.n 6.W.J.5.&.a.d.a.s.&.@.K Z N A Z Z J J U U G %.6.7.L >.>.( } k.CXPXPXPXPX",
"PXPXPXPXPXPXPXPXPXPXPXGXDXiXwX$X:X,X,X,X~.P.J.d.&.@.m G @.K.g.d t n #.$.,.#.A J ! ^ ^ K ,.1.3.%.} >.@.,.u.L L 4.=.) n.AXPXPXPXPX",
"PXPXPXPXPXPXPXPXPXPXPXLXSXVXNXiX#X:X,X!.P.b.6.6.%.P I N =.Q.$Xv.L b b b M b N K >.,.,.,.,.@.Z d n P L >.y.>.L 1.L { _.GXPXPXPXPX",
"PXPXPXPXPXPXPXPXPXPXPXPXPXHXBXeX!.%X%XL.b.v.s.&.@.F b M u.#X!.!.Z.5.%.#.A Z ;.,.$.5.6.u.-.- - p M I G ) i.4.( ) J  ..XLXPXPXPXPX",
"PXPXPXPXPXPXPXPXPXPXPXPXPXPXPXFXyX=X!.b.s.!.b.%.L I F P u.L.J.J.g.d.$.$.$.$.6.t.i.F.D._.i % a K G G G ) 0.<.( { ! h.CXPXPXPXPXPX",
"PXPXPXPXPXPXPXPXPXPXPXPXPXPXPXPXKXxX!.L.7.L.L.&.m m P K @.A n #.%.7.7.u.B.u.D.+X_.[.k.B = b K >.) J F ) 9.} D ( J [.UXPXPXPXPXPX",
"PXPXPXPXPXPXPXPXPXPXPXPXPXPXPXPXPXDX!.J.c.b.!.s.@.P H b t -   7 r.M._._.*X{.[.[.N.X.a s b A ;.1.{ D V ( 2.( S V ` tXPXPXPXPXPXPX",
"PXPXPXPXPXPXPXPXPXPXPXPXPXPXPXPXPXJXuXD.b.b.!.b.p.%.I I G J z 7 a  . ...k.q. . ._ C V K =.1.,.1.} ! D D } S j V M.AXPXPXPXPXPXPX",
"PXPXPXPXPXPXPXPXPXPXPXPXPXPXPXPXPXPXGX&XL.J.Q.L.7.%.G F H 7.Y.8XmXmXtX8XoX`.z.:.-.:.e.e.6.5.3.1.^ B ! ~ ( M F ~  XLXPXPXPXPXPXPX",
"PXPXPXPXPXPXPXPXPXPXPXPXPXPXPXPXPXPXPXCXF.b.b.Z.v.@.J D 4.L.^.5X3X9X9X3X1X<XOXC.y.5.,.1.;.1.,.( V x V Q B c j X.AXPXPXPXPXPXPXPX",
"PXPXPXPXPXPXPXPXPXPXPXPXPXPXPXPXPXPXPXPXMXD.s.v.u.>.( F 7.Q.~.!.W.R.K.K.g.a.5.$.#.@.H =.:.>.' G S x Q S S j ~ rXLXPXPXPXPXPXPXPX",
"PXPXPXPXPXPXPXPXPXPXPXPXPXPXPXPXPXPXPXPXPXHX+X0.U 4.( F >.C.L.L.P.J.b.d.5.#.G N C Z J J / J D V x Q Q S z x {.KXPXPXPXPXPXPXPXPX",
"PXPXPXPXPXPXPXPXPXPXPXPXPXPXPXPXPXPXPXLXPXPXLXyXS.r.<.>.4.c.Z.Y.R.K.b.t.K M h u a a C C C D Q Q Q Q ! z B '.JXPXPXPXPXPXPXPXPXPX",
"PXPXPXPXPXPXPXPXPXPXPXPXPXPXPXPXPXPXPXPXPXPXPXPXLXyXm.0.p.c.Z.Y.!.!.@XU.V.l.q.` ` ` 0.0.J ' ~ ~ E Q c ~ [.HXPXPXPXPXPXPXPXPXPXPX",
"PXPXPXPXPXPXPXPXPXPXPXPXPXPXPXPXPXPXPXPXPXPXPXPXPXPXGX XM.B.B.Z.Q.@X2X1X:X<X-X$XU.E.oXl.<.( ] S Q S r.rXLXPXPXPXPXPXPXPXPXPXPXPX",
"PXPXPXPXPXPXPXPXPXPXPXPXPXPXPXPXPXPXPXPXPXPXPXPXPXPXPXPXGXmX&XD.D.oX$X$X%X#XI.V.g.t.1.@.) J D S ~ S.CXPXPXPXPXPXPXPXPXPXPXPXPXPX",
"PXPXPXPXPXPXPXPXPXPXPXPXPXPXPXPXPXPXPXPXPXPXPXPXPXPXLXPXPXPXJXmX{.G.F.l.B.g.s.7.>.K K P P F B q..XJXPXPXPXPXPXPXPXPXPXPXPXPXPXPX",
"PXPXPXPXPXPXPXPXPXPXPXPXPXPXPXPXPXPXPXPXPXPXPXPXPXPXPXPXPXPXPXPXJXCXrX{.S.j.<.( D ( 2. .h.M.[.MXLXPXPXPXPXPXPXPXPXPXPXPXPXPXPXPX",
"PXPXPXPXPXPXPXPXPXPXPXPXPXPXPXPXPXPXPXPXPXPXPXPXPXPXPXPXPXPXPXPXPXPXPXPXIXGXMXtX7XXXtXMXAXKXIXPXPXPXPXPXPXPXPXPXPXPXPXPXPXPXPXPX",
"PXPXPXPXPXPXPXPXPXPXPXPXPXPXPXPXPXPXPXPXPXPXPXPXPXPXPXPXPXPXPXPXPXPXPXPXPXPXPXPXPXPXPXPXPXPXPXPXPXPXPXPXPXPXPXPXPXPXPXPXPXPXPXPX",
"PXPXPXPXPXPXPXPXPXPXPXPXPXPXPXPXPXPXPXPXPXPXPXPXPXPXPXPXPXPXPXPXPXPXPXPXPXPXPXPXPXPXPXPXPXPXPXPXPXPXPXPXPXPXPXPXPXPXPXPXPXPXPXPX",
"PXPXPXPXPXPXPXPXPXPXPXPXPXPXPXPXPXPXPXPXPXPXPXPXPXPXPXPXPXPXPXPXPXPXPXPXPXPXPXPXPXPXPXPXPXPXPXPXPXPXPXPXPXPXPXPXPXPXPXPXPXPXPXPX",
"PXPXPXPXPXPXPXPXPXPXPXPXPXPXPXPXPXPXPXPXPXPXPXPXPXPXPXPXPXPXPXPXPXPXPXPXPXPXPXPXPXPXPXPXPXPXPXPXPXPXPXPXPXPXPXPXPXPXPXPXPXPXPXPX"
};
