/* XPM */
static char *_1d47f343d7c4b7ebb38ba16ed282270[] = {
/* columns rows colors chars-per-pixel */
"50 50 191 2 ",
"   c black",
".  c #010000",
"X  c #010100",
"o  c #010101",
"O  c #030100",
"+  c #050300",
"@  c #060300",
"#  c #070400",
"$  c #030407",
"%  c #060606",
"&  c #080500",
"*  c #090500",
"=  c #090700",
"-  c #090701",
";  c #0A0600",
":  c #0B0600",
">  c #0B0700",
",  c #0C0700",
"<  c #0A0900",
"1  c #0B0900",
"2  c #0A0901",
"3  c #0B0A00",
"4  c #0E0900",
"5  c #0E0C07",
"6  c #070808",
"7  c gray3",
"8  c #090909",
"9  c #0A090A",
"0  c gray4",
"q  c #0B0B0A",
"w  c #0B0B0B",
"e  c #0C0C0C",
"r  c #120A01",
"t  c #150C01",
"y  c #151001",
"u  c #1B1101",
"i  c #1B1401",
"p  c #1B1501",
"a  c #1B1502",
"s  c #121314",
"d  c #151516",
"f  c #1B1A18",
"g  c #311D02",
"h  c #392202",
"j  c #313132",
"k  c #39393A",
"l  c #3A3A3B",
"z  c #4A2D02",
"x  c #4F2F02",
"c  c #573603",
"v  c #5C3703",
"b  c #5A3803",
"n  c #5E3803",
"m  c #673E03",
"M  c #554003",
"N  c #554202",
"B  c #554203",
"V  c #584203",
"C  c #584402",
"Z  c #584403",
"A  c #55440C",
"S  c #58460D",
"D  c #774C04",
"F  c #7C4A04",
"G  c #7B4E04",
"H  c #765A04",
"J  c #765B04",
"K  c #765C0A",
"L  c #7A6604",
"P  c #7B6A03",
"I  c #7B6A04",
"U  c #7B6B04",
"Y  c #7A6C12",
"T  c #4B4B4A",
"R  c #58554E",
"E  c #505051",
"W  c #5A5850",
"Q  c #5D5D5F",
"!  c #5F5F62",
"~  c #686869",
"^  c #787260",
"/  c #7C7A6F",
"(  c #7D7E7F",
")  c #824E04",
"_  c #805804",
"`  c #965A05",
"'  c #9F7B05",
"]  c #9D7906",
"[  c #9D7A06",
"{  c #9F7A06",
"}  c #9F7B06",
"|  c #9D7B0A",
" . c #9F7D0D",
".. c #A26105",
"X. c #A46205",
"o. c #A56305",
"O. c #A16705",
"+. c #B36B06",
"@. c #B56D06",
"#. c #BE7706",
"$. c #C17406",
"%. c #C57606",
"&. c #C67706",
"*. c #817241",
"=. c #CC8107",
"-. c #EA8E07",
";. c #FD9B08",
":. c #FE9E08",
">. c #CAA907",
",. c #CAAF06",
"<. c #CAAF07",
"1. c #CAB007",
"2. c #CAB21E",
"3. c #EDA908",
"4. c #F9A308",
"5. c #FFA008",
"6. c #FFA208",
"7. c #FFA308",
"8. c #FFA508",
"9. c #FFB109",
"0. c #FEB709",
"q. c #FCBB09",
"w. c #F9BC09",
"e. c #FCBE09",
"r. c #FFBF09",
"t. c #F9C007",
"y. c #FCC205",
"u. c #FCC206",
"i. c #FCC207",
"p. c #FCC307",
"a. c #FDC407",
"s. c #F9C109",
"d. c #FBC009",
"f. c #FCC009",
"g. c #FCC109",
"h. c #FCC308",
"j. c #FCC209",
"k. c #FCC309",
"l. c #FDC309",
"z. c #FFC309",
"x. c #FCC409",
"c. c #FDC409",
"v. c #FDC509",
"b. c #FFC508",
"n. c #FFC509",
"m. c #FCC50E",
"M. c #FFDD07",
"N. c #FFD509",
"B. c #FFD709",
"V. c #FFD809",
"C. c #FFDD09",
"Z. c #FFDE09",
"A. c #FBC412",
"S. c #FCC615",
"D. c #FCC617",
"F. c #FFC815",
"G. c #FCC71A",
"H. c #FFE007",
"J. c #FFE009",
"K. c #FAC826",
"L. c #FCCA24",
"P. c #FFCF2F",
"I. c #FDCE36",
"U. c #FFE126",
"Y. c #FFE427",
"T. c #EECC5C",
"R. c #FED755",
"E. c #838385",
"W. c #979799",
"Q. c #A29A81",
"!. c #A4A4A5",
"~. c #A5A6A7",
"^. c #BFB9A4",
"/. c #B4B5B7",
"(. c #B6B7B9",
"). c #FFE382",
"_. c #CDCAB7",
"`. c #FAE8B0",
"'. c #C2C3C5",
"]. c #C6C7CA",
"[. c #C7C7CA",
"{. c #FFF6CD",
"}. c #FFF6CE",
"|. c #FFF7D2",
" X c #FFF9D8",
".X c #ECEBE7",
"XX c #FFFAE5",
"oX c #FFFCE4",
"OX c #FFFFE7",
"+X c #FFFBEE",
"@X c None",
/* pixels */
"@X@X@X@X@X@X@X@X@X@X@X@X@X@X@X@X@X@X@X@X@X@X@X@X    @X@X@X@X@X@X@X@X@X@X@X@X@X@X@X@X@X@X@X@X@X@X@X@X",
"@X@X@X@X@X@X@X@X@X@X@X@X@X@X@X@X@X@X@X@X@X@X@X  1 1   @X@X@X@X@X@X@X@X@X@X@X@X@X@X@X@X@X@X@X@X@X@X@X",
"@X@X@X@X@X@X@X@X@X@X@X@X@X@X@X@X@X@X@X@X@X@X  y [ [ y   @X@X@X@X@X@X@X@X@X@X@X@X@X@X@X@X@X@X@X@X@X@X",
"@X@X@X@X@X@X@X@X@X@X@X@X@X@X@X@X@X@X@X@X@X  5 | c.c.[ 4   @X@X@X@X@X@X@X@X@X@X@X@X@X@X@X@X@X@X@X@X@X",
"@X@X@X@X@X@X@X@X@X@X@X@X@X@X@X@X@X@X@X@X  $ *.A.k.c.r.H     @X@X@X@X@X@X@X@X@X@X@X@X@X@X@X@X@X@X@X@X",
"@X@X@X@X@X@X@X@X@X@X@X@X@X@X@X@X@X@X@X@X  T T.a.k.k.c.3.z   @X@X@X@X@X@X@X@X@X@X@X@X@X@X@X@X@X@X@X@X",
"@X@X@X@X@X@X@X@X@X@X@X@X@X@X@X@X@X@X@X  s ^.P.i.k.k.c.r.#.4   @X@X@X@X@X@X@X@X@X@X@X@X@X@X@X@X@X@X@X",
"@X@X@X@X@X@X@X@X@X@X@X@X@X@X@X@X@X@X@X  ! `.m.k.k.k.d.d.4.m   @X@X@X@X@X@X@X@X@X@X@X@X@X@X@X@X@X@X@X",
"@X@X@X@X@X@X@X@X@X@X@X@X@X@X@X@X@X@X  0 /.).p.x.k.k.k.c.9.@.:   @X@X@X@X@X@X@X@X@X@X@X@X@X@X@X@X@X@X",
"@X@X@X@X@X@X@X@X@X@X@X@X@X@X@X@X@X@X  j .XR.p.c.k.k.k.c.0.-.g   @X@X@X@X@X@X@X@X@X@X@X@X@X@X@X@X@X@X",
"@X@X@X@X@X@X@X@X@X@X@X@X@X@X@X@X@X@X  ~ +XI.p.d.k.k.k.k.q.;.m   @X@X@X@X@X@X@X@X@X@X@X@X@X@X@X@X@X@X",
"@X@X@X@X@X@X@X@X@X@X@X@X@X@X@X@X@X@X  W.oXL.p.x.k.k.k.k.r.5.`   @X@X@X@X@X@X@X@X@X@X@X@X@X@X@X@X@X@X",
"@X@X@X@X@X@X@X@X@X@X@X@X@X@X@X@X@X@X% /. XG.x.x.c.d.c.d.e.5.+.+ @X@X@X@X@X@X@X@X@X@X@X@X@X@X@X@X@X@X",
"@X@X@X@X@X@X@X@X@X@X@X@X@X@X@X@X@X@X0 '.|.S.d.c.x.x.x.x.d.8.$.: @X@X@X@X@X@X@X@X@X@X@X@X@X@X@X@X@X@X",
"@X@X@X@X@X@X@X@X@X@X@X@X@X@X@X@X@X  e [.{.S.c.d.x.d.c.x.d.8.%.1   @X@X@X@X@X@X@X@X@X@X@X@X@X@X@X@X@X",
"@X@X@X@X@X@X@X@X@X@X@X@X@X@X@X@X@X  e [.{.S.x.x.x.c.d.c.d.5.%.4   @X@X@X@X@X@X@X@X@X@X@X@X@X@X@X@X@X",
"@X@X@X@X@X@X@X@X@X@X@X@X@X@X@X@X@X  e [.{.F.c.c.c.c.c.c.c.8.%.4   @X@X@X@X@X@X@X@X@X@X@X@X@X@X@X@X@X",
"@X@X@X@X@X@X@X@X@X@X@X@X@X@X@X@X@X  % ! ^ K J J J J J J J D v @   @X@X@X@X@X@X@X@X@X@X@X@X@X@X@X@X@X",
"@X@X@X@X@X@X@X@X@X@X@X@X@X@X@X@X@X  0 0 1 1 1 1 4 1 1 1 1 1 : :   @X@X@X@X@X@X@X@X@X@X@X@X@X@X@X@X@X",
"@X@X@X@X@X@X@X@X@X@X@X@X@X@X@X@X@X  E._.2.<.<.<.1.1.1.1.1.>.=.) O @X@X@X@X@X@X@X@X@X@X@X@X@X@X@X@X@X",
"@X@X@X@X@X@X@X@X@X@X@X@X@X@X@X@X@X  ~.OXY.J.J.J.J.J.J.J.J.V.8.X.O @X@X@X@X@X@X@X@X@X@X@X@X@X@X@X@X@X",
"@X@X@X@X@X@X@X@X@X@X@X@X@X@X@X@X@X  ~.OXU.C.C.C.C.C.C.C.C.N.8.X.O @X@X@X@X@X@X@X@X@X@X@X@X@X@X@X@X@X",
"@X@X@X@X@X@X@X@X@X@X@X@X@X@X@X@X@X  ~.OXU.M.C.C.C.C.C.C.C.N.5.X.O @X@X@X@X@X@X@X@X@X@X@X@X@X@X@X@X@X",
"@X@X@X@X@X@X@X@X@X@X@X@X@X@X@X@X@X  ~.OXU.M.C.C.C.C.C.C.C.N.8.X.O @X@X@X@X@X@X@X@X@X@X@X@X@X@X@X@X@X",
"@X@X@X@X@X@X@X@X@X@X@X@X@X@X@X@X@X  ~.OXU.M.C.C.C.C.C.C.C.N.8.X.O @X@X@X@X@X@X@X@X@X@X@X@X@X@X@X@X@X",
"@X@X@X@X@X@X@X@X@X@X@X@X@X@X@X@X@X  ~.OXU.M.C.C.C.C.C.C.J.N.5.X.O @X@X@X@X@X@X@X@X@X@X@X@X@X@X@X@X@X",
"@X@X@X@X@X@X@X@X@X@X@X@X@X@X@X@X@X  ~.OXU.M.C.C.C.C.C.C.J.N.8.X.O @X@X@X@X@X@X@X@X@X@X@X@X@X@X@X@X@X",
"@X@X@X@X@X@X@X@X@X@X@X@X@X@X@X@X@X  ~.OXU.M.C.C.C.C.C.C.C.N.5.X.O @X@X@X@X@X@X@X@X@X@X@X@X@X@X@X@X@X",
"@X@X@X@X@X@X@X@X@X@X@X@X@X@X@X@X@X$ ~.OXU.M.C.C.C.C.C.C.C.N.8.X.O @X@X@X@X@X@X@X@X@X@X@X@X@X@X@X@X@X",
"@X@X@X@X@X@X@X@X@X@X@X@X@X@X@X@X@X  ~.OXU.M.C.C.C.C.C.C.J.N.5.X.O @X@X@X@X@X@X@X@X@X@X@X@X@X@X@X@X@X",
"@X@X@X@X@X@X@X@X@X@X@X@X@X@X@X@X@X  ~.OXU.M.C.C.C.C.C.C.J.N.8.X.O @X@X@X@X@X@X@X@X@X@X@X@X@X@X@X@X@X",
"@X@X@X@X@X@X@X@X@X@X@X@X@X@X@X@X@X  ~.OXU.M.C.C.C.C.C.C.C.N.5.X.O @X@X@X@X@X@X@X@X@X@X@X@X@X@X@X@X@X",
"@X@X@X@X@X@X@X@X@X@X@X@X@X@X@X@X@Xo ~.OXU.C.C.C.C.C.C.C.J.N.8.X.  @X@X@X@X@X@X@X@X@X@X@X@X@X@X@X@X@X",
"@X@X@X@X@X@X@X@X@X@X@X@X@X@X@X@X@Xo ~.OXU.C.C.C.C.C.C.C.C.N.5.X.  @X@X@X@X@X@X@X@X@X@X@X@X@X@X@X@X@X",
"@X@X@X@X@X@X@X@X@X@X@X@X@X@X@X@X@X  ~.OXU.M.C.C.C.C.C.C.C.N.8.X.  @X@X@X@X@X@X@X@X@X@X@X@X@X@X@X@X@X",
"@X@X@X@X@X@X@X@X@X@X@X@X@X@X@X@X@X  ~.OXU.C.C.C.C.C.C.C.J.N.5.X.O @X@X@X@X@X@X@X@X@X@X@X@X@X@X@X@X@X",
"@X@X@X@X@X@X@X@X@X@X@X@X@X@X@X@X@X  ~.OXU.M.C.C.C.C.C.C.C.N.5.X.O @X@X@X@X@X@X@X@X@X@X@X@X@X@X@X@X@X",
"@X@X@X@X@X@X@X@X@X@X@X@X@X@X@X@X@X  ~.OXU.M.C.C.C.C.C.C.C.N.8.X.O @X@X@X@X@X@X@X@X@X@X@X@X@X@X@X@X@X",
"@X@X@X@X@X@X@X@X@X@X@X@X@X@X@X@X@X  ~.OXU.M.C.C.C.C.C.C.C.N.8.X.O @X@X@X@X@X@X@X@X@X@X@X@X@X@X@X@X@X",
"@X@X@X@X@X@X@X@X@X@X@X@X@X@X@X@X@X  ~.OXU.M.C.C.C.C.C.C.J.N.5.o.O @X@X@X@X@X@X@X@X@X@X@X@X@X@X@X@X@X",
"@X@X@X@X@X@X@X@X@X@X@X@X@X@X@X@X@X  ~.OXU.C.C.C.C.C.C.C.C.N.8.o.O @X@X@X@X@X@X@X@X@X@X@X@X@X@X@X@X@X",
"@X@X@X@X@X@X@X@X@X@X@X@X@X@X@X@X@X  ~.OXY.J.J.J.J.J.J.J.J.V.8.o.O @X@X@X@X@X@X@X@X@X@X@X@X@X@X@X@X@X",
"@X@X@X@X@X@X@X@X@X@X@X@X@X@X@X@X@X  E / Y U U U U U U U U L D x   @X@X@X@X@X@X@X@X@X@X@X@X@X@X@X@X@X",
"@X@X@X@X@X@X@X@X@X@X@X@X@X@X@X@X@X    6 0 : : + 1 + - - : : +     @X@X@X@X@X@X@X@X@X@X@X@X@X@X@X@X@X",
"@X@X@X@X@X@X@X@X@X@X@X@X@X@X@X@X@X  0 ( Q. .} } [ [ } } [ O.F :   @X@X@X@X@X@X@X@X@X@X@X@X@X@X@X@X@X",
"@X@X@X@X@X@X@X@X@X@X@X@X@X@X@X@X@X    d f p p p p p p p u u t     @X@X@X@X@X@X@X@X@X@X@X@X@X@X@X@X@X",
"@X@X@X@X@X@X@X@X@X@X@X@X@X@X@X@X@X  k R A B B B B B B B B B c h   @X@X@X@X@X@X@X@X@X@X@X@X@X@X@X@X@X",
"@X@X@X@X@X@X@X@X@X@X@X@X@X@X@X@X@X  !.OXK.t.s.s.s.d.d.d.s.e.:.X.O @X@X@X@X@X@X@X@X@X@X@X@X@X@X@X@X@X",
"@X@X@X@X@X@X@X@X@X@X@X@X@X@X@X@X@X  l W S Z Z Z Z Z Z Z Z Z v h   @X@X@X@X@X@X@X@X@X@X@X@X@X@X@X@X@X",
"@X@X@X@X@X@X@X@X@X@X@X@X@X@X@X@X@X                                @X@X@X@X@X@X@X@X@X@X@X@X@X@X@X@X@X"
};
