/* XPM */
static char *c60b85979bf04befa5b9047f423232aa[] = {
/* columns rows colors chars-per-pixel */
"40 40 80 1 ",
"  c black",
". c #0E0E0E",
"X c #111111",
"o c #252525",
"O c #272727",
"+ c #2C2C2C",
"@ c #353535",
"# c gray22",
"$ c gray23",
"% c #3C3C3C",
"& c gray24",
"* c #3F3F3F",
"= c gray26",
"- c #434343",
"; c #444444",
": c gray27",
"> c #464646",
", c #484848",
"< c #494949",
"1 c gray29",
"2 c #4B4B4B",
"3 c gray30",
"4 c #4E4E4E",
"5 c gray31",
"6 c #505050",
"7 c gray32",
"8 c #535353",
"9 c gray33",
"0 c #555555",
"q c #565656",
"w c gray34",
"e c #585858",
"r c gray35",
"t c #5B5B5B",
"y c #5D5D5D",
"u c #606060",
"i c gray38",
"p c #626262",
"a c gray39",
"s c #646464",
"d c #656565",
"f c #676767",
"g c #686868",
"h c DimGray",
"j c #6A6A6A",
"k c #6D6D6D",
"l c gray43",
"z c #6F6F6F",
"x c #717171",
"c c gray45",
"v c #767676",
"b c #777777",
"n c gray47",
"m c #7B7B7B",
"M c #7C7C7C",
"N c #7E7E7E",
"B c gray50",
"V c #818181",
"C c gray51",
"Z c #838383",
"A c #848484",
"S c gray52",
"D c #868686",
"F c #888888",
"G c gray55",
"H c #8D8D8D",
"J c #8E8E8E",
"K c gray56",
"L c gray57",
"P c #929292",
"I c gray58",
"U c #959595",
"Y c gray60",
"T c #9D9D9D",
"R c #9F9F9F",
"E c gray64",
"W c #A5A5A5",
"Q c gray65",
"! c gray68",
"~ c None",
/* pixels */
"~~~~~~~~~~~~~~~~~~~~~~~~~~~~~~~~~~~~~~~~",
"~~~~~~~~~~~~~~~~~~~~~~~~~~~~~~~~~~~~~~~~",
"~~~~~~~~~~~~~~~~~~~~~~~~~~~~~~~~~~~~~~~~",
"~~~~~~~~~~~~~~~~~~~~~~~~~~~~~~~~~~~~~~~~",
"~~~~~~~~~~~~~~~~~~~~~~~~~~~~~~~~~~~~~~~~",
"~~~~~~~~~~~~~~~~~~~~~~~~~~~~~~~~~~~~~~~~",
"~~~~~~~~~~~~~~~~~~~~~~~~~~~~~~~~~~~~~~~~",
"~~~~~~~~~~~~~~~~~~~~~~~~~~~~~~~~~~~~~~~~",
"~~~~~~~~~~~~~~~gi~~~~~~~~~~~~~~~~~~~~~~~",
"~~~~~~~~~~~~~~~~~~~~~~~~~~~~~~~~~~~~~~~~",
"~~~~~~~~~~~~~~~~~~~~~~~~~~~~~~~~~~~~~~~~",
"~~~~~~~~~~~~~~~~~~~~~~~~~~~~~~~~~~~~~~~~",
"~~~~~~~~~~~~~~~~~~~~~~~~~~~~~~~~~~~~~~~~",
"~~~~~~~~~~~~~~~~~~r~~~~~~~~~~~~~~~~~~~~~",
"~~~~~~~~~~~~~8zSMxgr9~~~~~~~~~~~~~~~~~~~",
"~~~~~~~~~~~~;rvSFLLVs~~~~~~~~~~~~~~~~~~~",
"~~~~~~~~~~~&2vgvSWTVis~~~~~~~~~~~~~~~~~~",
"~~~~~~~~~~~29mLVVLYvyy32~~~~~~~~~~~~~~~~",
"~~~~~~~~~~;3rmSrOo=i2~~~~~~~~~~~~~~~~~~~",
"~~~~~~~~~~~8ss&.  X@@&~~~~~~~~~~~~~~~~~~",
"~~~~~~~~~~~99g;X  #gy2=r~~~~~~~~~~~~~~~~",
"~~~~~~~~~~~8rgSM3rTLFx9rM~~~~~~~~~~~~~~~",
"~~~~~~~~~~~~#iMLTW!EJJUi8~~~~~~~~~~~~~~~",
"~~~~~~~~~~~~;vgszmxFEWJz~~~~~~~~~~~~~~~~",
"~~~~~~~~~~~~~3sgszgiz~3g~~~~~~~~~~~~~~~~",
"~~~~~~~~~~~~~~&r239~~~~~~~~~~~~~~~~~~~~~",
"~~~~~~~~~~~~~~~~O~~~~~~~~~~~~~~~~~~~~~~~",
"~~~~~~~~~~~~~~~~~~~~~~~~~~~~~~~~~~~~~~~~",
"~~~~~~~~~~~~~~~~~~~~~~~~~~~~~~~~~~~~~~~~",
"~~~~~~~~~~~~~~~~~~~~~~~~~~~~~~~~~~~~~~~~",
"~~~~~~~~~~~~~~~~~~~~~~~~~~~~~~~~~~~~~~~~",
"~~~~~~~~~~~~~~~~~~~~~~~~~~~~~~~~~~~~~~~~",
"~~~~~~~~~~~~~~~~~~~~~~~~~~~~~~~~~~~~~~~~",
"~~~~~~~~~~~~~~~~~~~~~~~~~~~~~~~~~~~~~~~~",
"~~~~~~~~~~~~~~~~~~~~~~~~~~~~~~~~~~~~~~~~",
"~~~~~~~~~~~~~~~~~~~~~~~~~~~~~~~~~~~~~~~~",
"~~~~~~~~~~~~~~~~~~~~~~~~~~~~~~~~~~~~~~~~",
"~~~~~~~~~~~~~~~~~~~~~~~~~~~~~~~~~~~~~~~~",
"~~~~~~~~~~~~~~~~~~~~~~~~~~~~~~~~~~~~~~~~",
"~~~~~~~~~~~~~~~~~~~~~~~~~~~~~~~~~~~~~~~~"
};
