/* XPM */
static char *ec880dfa9266482d9be9de2092bfb55a[] = {
/* columns rows colors chars-per-pixel */
"32 50 78 1 ",
"  c #030302",
". c #070806",
"X c #080907",
"o c #0C0C0B",
"O c #0F110C",
"+ c #11120E",
"@ c #141412",
"# c #161912",
"$ c #191A16",
"% c #1C1D1A",
"& c #1F211B",
"* c #21231D",
"= c #23281E",
"- c #242422",
"; c #272923",
": c #292B26",
"> c #2D2E2B",
", c #2B3026",
"< c #2F312A",
"1 c #30332D",
"2 c #353632",
"3 c #363932",
"4 c #393B35",
"5 c #3C3D3A",
"6 c #3C4137",
"7 c #3E413A",
"8 c #41443D",
"9 c #45493F",
"0 c #444441",
"q c #464A41",
"w c #4A4C46",
"e c #4D4E4A",
"r c #4C5145",
"t c #4F524A",
"y c #52554D",
"u c #555A4F",
"i c #555653",
"p c #555951",
"a c #5A5C55",
"s c #5D5F59",
"d c #5E615A",
"f c #61635D",
"g c #65695F",
"h c #646462",
"j c #676B62",
"k c #696D63",
"l c #6D6F6A",
"z c #6B7064",
"x c #6E726A",
"c c #71746C",
"v c #757A6F",
"b c #747572",
"n c #767970",
"m c #797B75",
"M c #7C7D79",
"N c #7D8179",
"B c #82857D",
"V c #868784",
"C c #868A82",
"Z c #898C84",
"A c #8C8F88",
"S c #8C9087",
"D c #92958D",
"F c #95998F",
"G c #969991",
"H c #9A9E94",
"J c #9B9C98",
"K c #9CA097",
"L c #A1A49C",
"P c #A5A6A3",
"I c #A7AAA2",
"U c #A9ACA5",
"Y c #ACB0A8",
"T c #B0B3AB",
"R c #B4B7B0",
"E c #B9BCB5",
"W c #C4C7C0",
"Q c None",
/* pixels */
"QQQQQQQQQQQQQQQQQQQQQQQQQQQQQQQQ",
"QQQQQQQQQQQQQQQQQQQQQQQQQQQQQQQQ",
"QQQQQQQQQ$Xo@+QQQQQQQQQQQQQQQQQQ",
"QQQQQQQ$$@Xo. .QQQQQQQQQQQQQQQQQ",
"QQQQQQQ-05%@    @-$QQQQQQQQQQQQQ",
"QQQQQQ-iMi-+     -&@QQQQQQQQQQQQ",
"QQQQQQ0bV0$oX    3a:QQQQQQQQQQQQ",
"QQQQQQ5ih>@     OdNp:QQQQQQQQQQQ",
"QQQQQQ-5e%o    $,uZc*oQQQQQQQQQQ",
"QQQQQQ%42$.    424BZ7+QQQQQQQQQQ",
"QQQQQQ%1%@.   @y3>zTS:QQQQQQQQQQ",
"QQQQQ%%>@o    $j0-uHB&+QQQQQQQQQ",
"QQQQQ%@-o     $a2%rvf=O#QQQQQQQQ",
"QQQQQ%@%..    @8:$qlgrOOoQQQQQQQ",
"QQQQQ%O$.+    +:#X:8q3++OQQQQQQQ",
"QQQQQ-o@o@   $%*+ %2&#o$+QQQQQQQ",
"QQQQQ%.@+@.+ ;>$o+8p3+ $@QQQQQQQ",
"QQQQQo @oo %O $+o*pc3&XooQQQQQQQ",
"QQQQQ  +o. %+QQo>mUB8=  oQQQQQQQ",
"QQQQ%  oo. %QQQ$wYEB9& XOQQQQQQQ",
"QQQs:   .+oQQQQ--BSz3$ @@QQQQQQQ",
"QQQM5o. o%@QQQw5X9u6<# -$QQQQQQQ",
"QQhVDQ%o@--QQQe> >9,=XX=$QQQQQQQ",
"QQhbbQ%oo-2QQwhh ;6$O.+$QQQQQQQQ",
"QQVMQQ-oo-QQQ0ZP2&&#@ ooQQQQQQQQ",
"QQhMQQQ@+>QQQiJPf$&&o.++QQQQQQQQ",
"QQiiQQQQ-QQQQ8cfe-#+ X@$QQQQQQQQ",
"QQ5QQQQQQQQQQ2eh$o+$o $QQQQQQQQQ",
"QQQQQQQQQQQQQ3:3%X@*+X+QQQQQQQQQ",
"QQQQQQQQQQQQQ2;&$o** Xo-QQQQQQQQ",
"QQQQQQQQQQQQ1>*$$@%*   -QQQQQQQQ",
"QQQQQQQQQQQQ1;$#=*#O X @QQQQQQQQ",
"QQQQQQQQQQQQ2>%O<,X    @QQQQQQQQ",
"QQQQQQQQQQQQ74*#ajO   OO>QQQQQQQ",
"QQQQQQQQQQQQapq,tH3O$O##;QQQQQQQ",
"QQQQQQQQQQQQsknz<zv6u6,O-0QQQQQQ",
"QQQQQQQQQQQQQfHH6=9zLvu,O>1QQQQQ",
"QQQQQQQQQQQQQrDLqX#tUTzr%$%QQQQQ",
"QQQQQQQQQQQQQyGRg& &aFBt#.  QQQQ",
"QQQQQQQQQQQQQtZWKt#o1yaw&+o  QQQ",
"QQQQQQQQQQQQQtNEEm;@,858-OoQQQQQ",
"QQQQQQQQQQQQQeNUUA7$,418-. QQQQQ",
"QQQQQQQQQQQQQaCFVMi*%>>>%.QQQQQQ",
"QQQQQQQQQQQQQ2dkfe>%+$%%+oQQQQQQ",
"QQQQQQQQQQQQQ%154-o@Xo$$oQQQQQQQ",
"QQQQQQQQQQQQQQ$$$$QoX.X@QQQQQQQQ",
"QQQQQQQQQQQQQQQo.+QQQQQQQQQQQQQQ",
"QQQQQQQQQQQQQQQQQ.QQQQQQQQQQQQQQ",
"QQQQQQQQQQQQQQQQQQQQQQQQQQQQQQQQ",
"QQQQQQQQQQQQQQQQQQQQQQQQQQQQQQQQ"
};
