/* XPM */
static char *_bd2756b83974134905e0cac269efe52[] = {
/* columns rows colors chars-per-pixel */
"64 64 256 2 ",
"   c #323626",
".  c #283B18",
"X  c #4A371F",
"o  c #394811",
"O  c #347113",
"+  c #286620",
"@  c #4C7215",
"#  c #565431",
"$  c #50712F",
"%  c #6C7336",
"&  c #5D5D1C",
"*  c #397061",
"=  c #5A7449",
"-  c #6B734E",
";  c #72726A",
":  c #606250",
">  c #897132",
",  c #A66535",
"<  c #CD723D",
"1  c #8E744A",
"2  c #AE744D",
"3  c #8B7975",
"4  c #8B706E",
"5  c #AF716B",
"6  c #A75A5C",
"7  c #D07453",
"8  c #CA716A",
"9  c #D76A50",
"0  c #358911",
"q  c #36871F",
"w  c #4F8B15",
"e  c #538E2F",
"r  c #689639",
"t  c #6F8D30",
"y  c #55A630",
"u  c #70A935",
"i  c #6B9319",
"p  c #38AB60",
"a  c #598E4B",
"s  c #778547",
"d  c #679848",
"f  c #759957",
"g  c #6F8D52",
"h  c #53AB52",
"j  c #72AD4F",
"k  c #52956C",
"l  c #778F6A",
"z  c #4EB36E",
"x  c #74AE6B",
"c  c #5ECB5D",
"v  c #74CD54",
"b  c #50C771",
"n  c #66C868",
"m  c #75D06C",
"M  c #73C024",
"N  c #8F9335",
"B  c #8EAB35",
"V  c #A49B36",
"C  c #C6983F",
"Z  c #A6C43C",
"A  c #8A9051",
"S  c #AC9151",
"D  c #8CAF52",
"F  c #ACB051",
"G  c #8A9769",
"H  c #878B77",
"J  c #919071",
"K  c #A99072",
"L  c #95A56A",
"P  c #88A878",
"I  c #97A778",
"U  c #8FB270",
"Y  c #A9B175",
"T  c #CA9354",
"R  c #CAAF56",
"E  c #CDB46D",
"W  c #F3A968",
"Q  c #E3945E",
"!  c #8DCE55",
"~  c #ABCA53",
"^  c #AEEA58",
"/  c #91D56A",
"(  c #AED16E",
")  c #95E671",
"_  c #B1E96D",
"`  c #96E45A",
"'  c #CBD058",
"]  c #CFD269",
"[  c #EED26A",
"{  c #CEEF70",
"}  c #EBEE73",
"|  c #DDDE5A",
" . c #343AAD",
".. c #4E38B1",
"X. c #6C38B4",
"o. c #403F9C",
"O. c #344FAF",
"+. c #3172AC",
"@. c #4F48B1",
"#. c #6E4DB7",
"$. c #5869A8",
"%. c #723BC2",
"&. c #3570C5",
"*. c #385AC8",
"=. c #5563C5",
"-. c #8D3EBD",
";. c #98679B",
":. c #8F50CA",
">. c #AA55D1",
",. c #9A6CCD",
"<. c #AA6CD7",
"1. c #B46FE5",
"2. c #9B65E4",
"3. c #C658D4",
"4. c #C86EDC",
"5. c #9537C9",
"6. c #2EA2A5",
"7. c #52B48B",
"8. c #6EB08D",
"9. c #71B2AA",
"0. c #5BA0A6",
"q. c #36C68F",
"w. c #38D1AF",
"e. c #4DC88E",
"r. c #68CD8C",
"t. c #4ED0B0",
"y. c #71CCB7",
"u. c #57E3B4",
"i. c #3590CF",
"p. c #35A7D6",
"a. c #38BDE4",
"s. c #4CABDA",
"d. c #76B5D6",
"f. c #4EAEE6",
"g. c #6FBAE6",
"h. c #5691D4",
"j. c #3ADADA",
"k. c #48DBD9",
"l. c #4DD5CD",
"z. c #51E5D4",
"x. c #4FCFEA",
"c. c #79C9F6",
"v. c #77CBED",
"b. c #54E7EE",
"n. c #6BE6E7",
"m. c #8F9289",
"M. c #AD968D",
"N. c #9AA887",
"B. c #98B686",
"V. c #92AF93",
"C. c #A7A789",
"Z. c #A7B789",
"A. c #AAA696",
"S. c #B6A798",
"D. c #A9B798",
"F. c #B8B899",
"G. c #B6B389",
"H. c #8D96AC",
"J. c #8FB0AF",
"K. c #AAB7A8",
"L. c #B7BAA8",
"P. c #B8BAB6",
"I. c #AFACA8",
"U. c #A888B1",
"Y. c #C7AC9A",
"T. c #CBB396",
"R. c #C9B8A8",
"E. c #D3BBAB",
"W. c #CBBBB5",
"Q. c #D4BEB2",
"!. c #D9BCB6",
"~. c #C7AAAA",
"^. c #D4999B",
"/. c #95C58F",
"(. c #A8C798",
"). c #B7C599",
"_. c #ADCE8D",
"`. c #ABC7A8",
"'. c #B8C6A8",
"]. c #BAD6A9",
"[. c #A8C6B6",
"{. c #B8C8B8",
"}. c #B8D7B8",
"|. c #ACD5AC",
" X c #BCE4AB",
".X c #A0DD9B",
"XX c #C6D096",
"oX c #CDEB8C",
"OX c #EEF58A",
"+X c #C8C8A8",
"@X c #D4C2AD",
"#X c #C8D6A7",
"$X c #C7C7B8",
"%X c #D4C3B4",
"&X c #DAC5B4",
"*X c #D8C7B8",
"=X c #C8D6B9",
"-X c #D5D6B9",
";X c #D3DAA9",
":X c #E1CABD",
">X c #D4E3B9",
",X c #CAE7AF",
"<X c #F7DB97",
"1X c #A989D4",
"2X c #8FB4CF",
"3X c #AFB3CE",
"4X c #B691EE",
"5X c #90BAF0",
"6X c #B2AEF3",
"7X c #9294D9",
"8X c #CDBDC8",
"9X c #D19FEF",
"0X c #92C7D4",
"qX c #B8CAC5",
"wX c #B9CBD8",
"eX c #B1CFCF",
"rX c #B6E2D2",
"tX c #88C7EA",
"yX c #98C8EA",
"uX c #88C7F6",
"iX c #98C9F5",
"pX c #97D4F9",
"aX c #8DD4F6",
"sX c #A6C8E8",
"dX c #ABD5E7",
"fX c #B8D5E7",
"gX c #A8CBF8",
"hX c #B6C9FC",
"jX c #A8D7F9",
"kX c #B7D8F5",
"lX c #B8CCE7",
"zX c #ACE4F9",
"xX c #81F6E3",
"cX c #C8C8C8",
"vX c #D6CBC8",
"bX c #C9D5C7",
"nX c #D7D8C9",
"mX c #CAC9D5",
"MX c #D5CBD4",
"NX c #C8D7D7",
"BX c #D8D7D6",
"VX c #E4D9CB",
"CX c #E5DAD7",
"ZX c #E8CBC5",
"AX c #D8E3C7",
"SX c #D9E3D6",
"DX c #CFEDCD",
"FX c #E8E4D9",
"GX c #EBE9CC",
"HX c #C5DBEA",
"JX c #CDD1EB",
"KX c #E6D8E8",
"LX c #C5E5F4",
"PX c #D2EAED",
"IX c #E6E5E3",
"UX c #EEF2F0",
/* pixels */
"JXmXJXNXrX=XBXbXCXcXnXbXbXcXKXmXSX=XbXqXcXBXMXmXmXmXZX!.vXbXbXnXnX-X=X}.NX{.SXnXvXGX$XnXBXvXmXNXbXbXcXVXcXvX-X;X,X].NX$X+X=XNXlX",
"BXK.`.`.(./.`.F.D.$XA.}.].L.{.P.{.eX[.eXqXP.8XMXcXW.~.!.*X'.D.L.F.F.R.nX'.F.`.D.K.`.D.P.[.qX[.[.|.|.#XL.'.'.F.XX_.).{.=X,XZ.K.NX",
"_.a @ q i w e f f B.U e j d e f rXrXeXwXI.;.~.!.M.5 6 1 G.G 1 % & K 2 1 % - - f a a k k * k 7.0.x d D $ g l F N $ x . d e e g +X",
"oXr i i w w r D D a j y h w O _.PXkXLXPXKXI.~.M.8 8 , 1 N r F A > E 1 > > S A U U x 8.r.z 0.9.y.[.B./ e e f ] N q + $ q j j % >X",
"XX% D ! w w u t i ! w c w q q V.HXHXJXmXMXS.3 1 2 7 S F t N ( V N R S > > S 1 L B.- k 8.9.J.0X0XzXDX/ r e d { F # * k N./.e g #X",
"#Xs f r j u w i u w 0 M y 0 a DX3X3XKXW.K 3 G.L 2 2 V F N B Z B Z N F F 1 > > 1 A # - H V.J.eXPXUXPXD D ( u B D ; m.m.{.f f g =X",
"vXm.= @ D u @ w u e y 0 w q e /.l m.^.M.4 A Y N R C V i i w B ^ | B Z ' ] R V > S K K 1 P m.|.PXDX,XB ( _ B j f l D.G ( D D P (.",
"nXl P r @ w w @ w y w y v q e $ J :XK 2 A t i t } OX( N B B D { ^ | ^ | } | > V W [ S > A a U .Xm e @ D B u _.U J.k @ F Y  Xf ,X",
"}.g / j w O O O d y q v y 0 @ t 1 K 2 2 ' @ ~ B ~ OXF ~ r ! ! _ ^ ^ ^ ^ oX^ ' | [ [ C C S N U U u u F D i ! >X[.0.J.$ x B.U f ,X",
"].a a d u e O O $ q e h y e e s 1 , < , V N B B ' oXD D r j j / v ` ` ` _ { { } } } C N V > N S D oXOXZ u ! U 8.9.y.$ x .Xa U (.",
" Xf j d e d a U x a e e d g G K , , Q < ' ] Z B ( ( v c c h h n b b b n m ) _ { } } | ' Q C T T T.GX| Z M i B U x J.* V.x r D #X",
"].a g j f d = g x f x j g J K K 9 9 Q Q ] OXoX/ / m n c q.p b b q.e.u.r.m c ) ` ^ { } } [ W Q 9 7 [ [ | Z i Z ~ g a J.B.( e f #X",
"SXH f f D t @ t s x j j g Y K , 7 W W <XOX_ oX) m b b q.q.q.q.e.y.e.y.u.m b c v ` ` { } } [ W < 9 9 <XR F B M ! B D B.,X( u I nX",
"cXAX>X( _.D & D f f f U D Y S 1 Q T E } oXoXm c b e.q.t.w.w.w.u.xXy.t.y.u.e.b c c ` ^ { OX} [ W 9 9 Q E E ~ t oXu t  X( D t P =X",
"bXDX|.l P ].I B.x x x ) D t N N u w y M _ ) c b b e.u.z.b.b.b.b.xXn.n.b.z.u.w.w.b b v ` { } } [ W Q 9 !.GX;X`.DXe a UX].i j U ].",
"bXV.l l l }.[.V.(.x e i B N N i 0 0 0 0 v m b e.w.y.z.x.b.b.x.b.x.n.n.n.b.b.z.j.u.q.e.c ) { } } W 9 9 8 VXUXUXLXx z rXrXx r _.#X",
"#XB.U x /.DXqXK.8./.e t > > A @ w M 0 0 p e.t.t.k.b.b.j.a.p.f.f.s.s.g.s.x.a.b.b.j.w.q.b n ) _ { | R W 9 ^.KXKXzXLXkXzXrXr.k B.AX",
"-XN.f k J.HXI.H k a $ & > 2 ] _ M ^ u p e.u.l.z.b.x.a.p.i.&.&.*.&.=.&.&.p.p.a.a.j.j.j.q.b b ) oX} [ Q 9 6 9XhXkXkXgXpXdXy.9.[.bX",
"-XA.J.8.2XdX3Xm./.a & > , F ' { ^ ) c p w.l.x.x.s.i.i.&.&.*.@...@.@.O.*.*.&.&.a.j.b.j.w.q.z m ) _ } W 7 6 5 3XsXpXuXtXyXy.0XeXfX",
"=X{.dXtXyXgXlX[.g $ & > C ' | _ / x z w.w.j.f.s.h.&.O.O.O...X.%.%.#... . . .*.*.i.p.x.k.l.q.7.z ! { [ W Q 6 ;.6X5Xg.g.d.d.d.sXlX",
"nXmXjXuXpXgXsX[.a % > 2 C ' | ! z q.q.l.b.x.i.h.=.=.@...X.%.5.>.>.:.:.%.5... . .O.&.p.a.k.w.w.7.n _ ] [ Q , ;.U.d.g.g.g.tXd.2XkX",
"NXHXjXpXiXgXsX2XJ J , 7 ' { { m e.q.l.k.x.i.&.*.#.X.-.:.>.>.>.1.<.>.2.:.1.%.%... .O.*.p.x.k.l.t.e.r.^ [ Q < 5 ;.d.g.s.v.aXpXsXhX",
"mXHXzXzXsXdXjXwX^.8 2 T [ | / b q.6.k.x.p.+.O...X.-.3.3.3.>.,.,.<.<.<.>.<.:.5.%.X. .O.&.p.x.b.z.q.e.) { | Q 7 4 7Xg.f.c.pXjX6XkX",
"NXHXzXzXdXkXkXwXM.6 T [ } _ n e.w.k.b.6.&.+.o.:.>.3.3.3.4.4X4X6X6X4X4X<.,.<.>.>.-.X. .+.h.g.x.k.t.e.) _ ' R 2 6 H.2Xg.g.pXgXsXkX",
"rXPXdX0XLXHXHX3X8 8 W <X{ / p w.b.x.p.&.=.@.#.>.>.3.4.9XJXhXhXgXlXhXhX6X6X4X4.3.3.>.:.=.O.&.s.n.k.t.7./ ( ( T K 4 7Xd.g.d.sXdXfX",
"fXfX[.9.2XlXmX~.6 8 [ ] ^ n q.w.k.x.i.+.=.%.,.3.4X9X6XhXhXjXhXgXyXyXiXjXkXJX9X9X4.3.:.:.#.$.h.l.l.w.e.r.v _ ] E 1 ;.5XtXyXdX3XNX",
"fX0X0XJ.h.mX!.6 8 W [ _ v z q.k.f.i. .o.-.:.1.1.6XgXgXaXaXaXiXiXuXtXaXiXgXhXhXhX4X1.>.>.#.o.O.i.s.w.t.k h / ] R 6 4 7XyXJ.J.9.NX",
"fXeXsX5X2X3X^.6 8 <X] ) c q.w.b.g.&.o.#.>.1.1.4X6XuXc.c.c.tX5XuXtXc.uX5X5XuXuX5X5X4X1.2.,.#.#.7X0.6.y.7.h c _ ~ 2 5 m.2X0.$.8.fX",
"fXsX5XyX5X3XM.6 T OX{ m b q.n.c.h.=.#.:.<.1X6X5Xc.c.c.uXuXuXc.v.c.uXuX5XuXc.c.c.c.5X4X1.4.>.,.H.+.6.9.7.p y ! Z S 2 3 U.H.0.2XdX",
"fXlX0XtXiXU.6 7 R ] / c q.j.x.h.o.X.:.<.1X6XiXg.c.uX5XiX5XiXtXv.uXuXuX5Xc.v.c.v.c.c.c.7X,.,.:.#.k * 7.7.p q u ! D 2 ~.m.2X2X2XdX",
"mXfXtXtXsX;.4 8 [ ^ v p q.x.s.*.X.#.,.1X6XgXuXuXuXaXiX5XiX5XtXtXuXuXv.v.v.v.v.v.g.5Xg.5X7X7X,.$.k k k z h d u u B R ^.3 J.d.d.zX",
"mXlXtX0X3Xm.K E } ^ c z j.a.&.O.:.:.1X6XgXiXtXaXuXiXiXiXiXyXpXpXuXuXv.v.v.v.tX5X5Xd.5Xv.5X2X,.;.; * + k h h y w u Y 6 4 H.2Xd.dX",
"lXlXiXsX~.4 S ] { v z 7.k.p.*. .:.<.6X6XiXaXaXaXiXpXgXiXjXpXzXpXiXgXaXtXaXv.uXtXtXtXpXyXdXeX3XH = d q + h q O 0 w D E 1 H H.9.fX",
"lXlXlX3XM.2 F oX( n z t.t.+.O.,.,.1X6XhXiXaXaXaXiXpXjXgXjXjXzXjXjXjXjXyXaXtXpXuXjXtX0XfX0XV.J.(.d @ e + O q + y w B E 1 A m.P NX",
"NXeXdX8X8 7 E { ! n 7.7.0.0.#.,.1XwXhXsXiXiXyXtXjXjXjXhXjXkXzXjXzXkXjXpXjXpXpXyXgX0XsXeX[.H.J.|.r e y + e y + y w N ' N A L l }.",
"rX[.[.I.5 T ] ] x x 7.r.dXLXJXU.4XJX6X3XsXdXsXkXdXkXkXlXkXkXkXfXkXgXjXsXgXdXyXyX0XdXdX0XJ.[.K.B.a e r j  X_ j j w i R F N % a ].",
"|.V.V.J 1 F ] / d k k 8.J.qXNXcXcXJX3X3XlXHXkXLXLXLXLXHXHXHXPXHXHXkXLXLXkXLXkXkXfXfXeXeXeX[.V.V.l $ $ B. X|._.O @ t B F A & - #X",
"rX|.`.'.Y XX X_./.`.y.[.P.P.SXFXPXIXJXPXPXUXPXPXPXHXPXHXHXPXHXPXHXJXLXLXHXPXJXHXPXPXPXSXPXDXDXDXDX(.}.nX=X|.}.P U ).( XXG.Y ).DX",
"BXBXVXGXVX-X,X#X>XBX{.bXMXvXFXBXNXNXNXvXcXcXcX{.qXeX}.qXqXqXbXqXwXqXwXqXqXNXP.P.[.qXbXK.=X|.bX}.rXDXIXBXNXmXNXAXDXGX,X>XGXGXSXSX",
"P.I.S.S.I.D.B./.K.V.l A.!.8XCX{.{.{.$XL.I.L.W.{.$X}.|.[.[.}.{.qXbX{.cXqX[.qXD.P.{.'.{.Z.].B./.(.|.}.MXMXJXwXqXl K.(.U Z.S.I.A.K.",
"qXK.~.4 W.I.N./.K.V.a l qXMXIXqX`.}.+XF.# E.~.+X=X`.}.|.|.|.|.{.}.K.`.`.+X$XZ.#XN.H =Xg #Xl /.P V.V.Y.CXMXcXcX- `.|.l Z.+XS.m.'.",
"qXK.K X ; ~.D.P `.P + B.MX8XJXqX'.=XF.R.: !.C.+X].`.|.|.|.|. X].DX`.'.N.I -X).F.s o  XG B.P _.f (.C.S.VXKXNX{.# V.D.t f +XJ 4 =X",
"cX%X3 X ; *XI g ).L O g W.8XKXJX$XD.C.;XJ @XK -XD.).(.(..X(. X/.`.D.'.N.L ).A ;XL g ,XL Y f /.f P I C.GXMXcX+X= D.].% s @X: = =X",
"vX%X% X 4 W.A G T.Y @ D +XvXKXqX'.+XL.R.J T.J C.N._././.(.B. XB.>XN.Z.Z.L G.% XXY Y XXA _.= B.f B.Z.K VXMXnX).% l D.$ N ;X# - >X",
"MX+X> o G F.% % C.G o U AXmXPXbXK.+XF.F.J +XA C.I ).B./._.P ,XP '.l C.).A ;XT.XXY f oXL ).= (.l N.N.C.FXMXMX+X- G Z.o s +XJ H >X",
"MX-XL $ G ;Xg o +XG.@ P `.cXSXcXC.L.J -X4 +X; -XG.#XF.Z.#XI ,XI -XC.@X-XG #XY XXoXs GXL ].G '.J C.M.C.GXMXvX'.a B.XX% S #XJ H =X",
"mX{.L @ A &XK # I.m.+ x qXJXIXvXS.bXF.-XH -XG +XF.+XF.G.#XI ,XI $XF.S.+XF.;XG Y ).A GX- >XF.'.'.ZXL.C.nXKXMX(.@ - ).F E XX- = =X",
"mX=XL A K T.: # P.; . m.qXcXVXVXvXVXnXVXD.-XZ.>XZ.).C.Y ).L XXJ F.S.F.L.Y F.L Y L % ;X$ ;X'.>X'.-X$X+XFXBXW.,XG (.).% > XX- : ,X",
"cXnXl % I nX:   $XH   V.qXvXSXCXBXnXP.SXD.=Xl '.I (.L Z.#XL XXL -XC.C.G.1 +XL G.Y s ;XZ._.Z.#X=XbXnX-XnXBX=X>XZ.'.AXs A AXm.: >X",
"*XVX3 X D.FX;   AXm.  m.qXcXBXBXKXBXW.P.; L.- ).I ).N.I ).I '.I +XC.Y.XXI ;XI Y XXA ,XL #XI ).N.$XbXnXSXBX$X#XJ $XAXA D AXD.H AX",
"W.CXA.  W.SXl : SXA.  ; W.mXKXBX$XP.m.P.: `.- =XI F.).F.;X+XGX@XVX:X-XVX+XGX+X;X#XZ.;XG ;XB.#XD.K.P.=XBXNX=X#Xl {.AXL Y >XK.I ].",
"W.CXI.: $X$XH H nXK.  ; cXmXKXcXH.3X; cX; bXH nXD.;XGX-X>X+XT.S.S.S.S.S.S.+X&X-XGXAXGX+XAX'.'.N.P.D.{.NXNX=X>XG '.>XD U >X`.P XX",
"cXvXM.- {.$XG H $XI.  H mXmXMXMXH wXm.mXm.SX=XAXVX-X+XM.M.M.S.~.S.~.S.M.A.K m.I K F.-XFXVXAXFX$XbXK.P.NXNX}.,XP V.].s t  XB.f  X",
"{.W.I - A.$X- $ '.N.  J cXMXBXMXI.cXP.BXnXFXFXW.C.A.S.~.E.E.!.!.*X%X*X%X*X%X@X+X+XC.C.A.$XCXUXnXBXqXbXHXNX{.}.P V.'.r e }.P g  X",
"L.=XI - N.'.s % '.H . G W.vXCXBXIXCXBXIXFXW.L.M.R.W.Q.!.&X!.!.!.ZX%XvX%X%X%XW.%X%X%X*XI.S.A.CXUXSXNXSXBXSX}.=Xm.D.DXf f ,XB.f ,X",
"-X>XY l '.>Xs D -XI & J {.MXBXVXCXFXIXnXS.I.S.%XR.%XQ.E.E.*X:X!.*XE.ZX*X*X:X%X%X%X*X%X%XW.P.M.W.IXUXPXBXNXcX=XN.V.=Xf G }.V.l  X",
"=X'.I g D.>XL t '.N.# I *XmXCXVXFXCX!.S.S.E.!.E.@XQ.@X%X&X*X&X&X:X:X:X:X&X:X@X&X%X%X%X%X*XW.R.A.L.BXIXIXcXcXvXH P.AXI G SX{.l bX",
"=XFX'.G bXnXG G SX$Xl C.$XmXKXFXCXE.^.Y.Q.~.T.!.%X%X@X%X*X*X*X*X*X&X:X&X&X@X&X@XE.%X%XW.!.W.~.I.M.L.vXKXnX$XnXL.nXbX].+XNXP.L.bX",
"cXSX=XK.bXBXF.'.cXBX$X+XP.8XIXIXY.Y.Y.R.E.T.E.&XE.@X@X%X*X*X*X*X*X&X&X&X&X&X@X@X@X&X%XW.R.R.R.R.L.K M.cXVXW.vXIXCXvXAXGXBXMXIXIX",
"MXqXSXSXcXSXGXnXcXcXvXnXmXKXKXW.S.E.&X~.T.E.&XE.@X&X@X@X*X*X%X-X*X&X:X-X&X&X&X&X*X*X&X%XQ.W.R.E.R.A.M.M.W.VXZXFXCXVXnX:XvXcXcXW.",
"FXKXFXVXMXCXBXnXKXMXCXZX8XMX8XS.R.R.Y.R.!.E.E.E.!.&X@X&X&X*X*X*X-X*X*X*X-X&X:X&X*X*X*X%X%X%X%X@XE.@XW.M.K M.; 4 3 H 4 - ; ; : ; ",
"3 J 4 4 H 3 4 3 4 ; 4 4 3 M.S.~.%XY.Y.R.E.E.E.!.&XE.Q.%X%X%X*X$X&X*X*X*X&X*X*X&X*X%X%X%X*X*X%X@XR.T.W.W.R.M.m.~.S.M.G.S.S.S.Y.U.",
"J 1 J J 5 K M.K M.M.K K Y.Y.E.T.F.W.%XR.R.E.E.&X!.Q.Q.&X&X%X*X%X%X*X$X*X*X*X*X*X*X%XW.*X*X*X%X@XE.&X!.~.R.@XW.R.R.Y.T.T.S.S.Y.S.",
"Y.T.Y.Y.Y.Y.~.Y.^.T.E.Y.T.T.E.T.R.R.W.Q.Q.&X!.E.!.!.Q.Q.!.%X%X%X$X%X*X*X$X*X$X*X*X%X%X*X*X*X%X&X&XW.R.W.E.R.W.R.E.E.T.T.E.R.S.Y."
};
