/* XPM */
static char *_4c605bc1b6745639d5f49a136c7a355[] = {
/* columns rows colors chars-per-pixel */
"64 64 63 1 ",
"  c #6D6556",
". c #67635A",
"X c #6C655C",
"o c #6E695E",
"O c #726B5E",
"+ c #77725F",
"@ c #79705F",
"# c #6E6A61",
"$ c #736D63",
"% c #796F63",
"& c #736E69",
"* c #767165",
"= c #7A7466",
"- c #7E7965",
"; c #767369",
": c #7B766A",
"> c #7D796D",
", c #7E7B71",
"< c #827762",
"1 c #837A64",
"2 c #8A7F66",
"3 c #827C6D",
"4 c #897E69",
"5 c #827D72",
"6 c #8D8167",
"7 c #86816E",
"8 c #8B836C",
"9 c #8F886E",
"0 c #938364",
"q c #92866C",
"w c #93896E",
"e c #9B8D6F",
"r c #9D906E",
"t c #858174",
"y c #8A8474",
"u c #8E8974",
"i c #868478",
"p c #8A8679",
"a c #8D8A7B",
"s c #918673",
"d c #938C73",
"f c #998E73",
"g c #908778",
"h c #928C7C",
"j c #9A8E78",
"k c #969076",
"l c #9B9276",
"z c #95907C",
"x c #9B947B",
"c c #9E987D",
"v c #A19679",
"b c #A49B7C",
"n c #A99B7E",
"m c #AAA07D",
"M c #8F8D80",
"N c #928E81",
"B c #959282",
"V c #9A9583",
"C c #9E9983",
"Z c #9C9989",
"A c #A29C81",
"S c #A7A181",
"D c #B0A381",
/* pixels */
"g5gga555gs553p5gp3i5ds:5t5t3iiupu7tp7>743iv35ggs4gggpsuh9uptp>:9",
"3,aiM,:;,5&&&>>>,:hiu8>iipppMiiiMMit;;,>$;d$;55::,5pNa,ii5,t:$$t",
"5:55,,5,:N5:,35ppiM,uw=iMiihaBBMaZZa>pp;;5x$>555pMNVBBppitti5>>y",
"M,,,:,:;55MM,>,5,i,&p6>>,aaBBMMaBZBzi7i;%:V>5p555apahhppiai5t5>t",
"h55M555:i5555;:5,it;t43y;,iMNMMZBNaha*5553g>3,55pgs5aBppaait,t;u",
"5:555pp:,5&55MM55pi>4q=&,;,,iMMaui5pi>i3i5d>55555pp5aBhpattt>>&z",
"55iM5;55555&5555,pp5pf3>i5,,,ii,ti55pppsapz5M55,5phaaNh3tyt,5;;x",
"s>3:,5&>&&&,55MM5p5,ge5555,i,,,:>ip5>p5,5>x5Na5>ggisppi3-,,,t,,z",
"3&&%&&:3&&;,:,5535:&as5g5,,>>,>5,,>ii5>$3>j:it5tt3,iaayiityt,>>u",
"4;:&$,p5::;:;:5M::5&gf&:i5>>>,,,p5>55==:$;x:5,>>>,tuaaatttyt,>,c",
"555:35i;&::>:3:5533;5045NM5ii,5>5i>,,&*>$%c3tip5,75aaaautt5,t,>a",
"5%&:55N5,,:&&3&&5;i>g25hMNpi5,;>3p5>>;$%;;d5pip5:>iaazahy,>5>,>u",
"g55:5aVp3:;#&&&&:*i,8<:iaaNaup;=3ip5&3>&>=d,5tp3>,tyagzhp,>7>t,9",
"4aaapha3;3;3:&%&*,,5t<3itip>3yats55s5>35i:d5i,ii;;,zyphpgt>75tt7",
"3>,5>;#;&$$X#XXXO*O.42*:;>:;*=y>3:=:3:&53*9>,:&:;$;i35t5t5;;>7,7",
"dssssdfxffdd18dw96w9knllljbldkf8sfdfdfjjswA9hkys8ydkxdfddkkzxccc",
"g4ysu3dttgbs5dg5jjjhgggjauzuzyybvhhVVNNpNN5N5NNM8iaudvypggpihudz",
"5i5>;&55#;g$;::55555Mp,5i::;>&;k5&55M5555p55555&>;5;3s55tpitt,,,",
"3zNp>>55$:d;>,ip55MNNNMNytt,,;:x4&NN55pi5B5iM555N,t;5s55NBMMiaay",
"aVBhi5,>>$s,>i55p55VpMp5,t,,:>>k3555555:5pp55&&:Ni,&5p,5aMBNyaat",
"VNhsi55:y=855tii55355iM5ut,t;>>z45555i5555555i5:ipap5455iiizzaci",
"yyii355:p3s55i>>5555pNN5it>,:5>C53Ng555555,5NNM5tip5,s55tatttaai",
"5yp5553>>>h>5>t,5MhMaNp5,tt>5t,b45Ng&5i55555MM5:>ap5i8:5ii,itiit",
"53s5;;>5*$z,Nit,5p5ipi53>t>,t::A5&5555555,::5555tMppps55iiii,>>-",
"3sii5555&$d>ii>>>55ptttt5t,zp>>j4&35&554:,,:55Mp5Mp5yg55ii,>;t,>",
"3i5t55>:%$d;itt,;,>5tiuay7tai5,c4&55#3N55i,:5i5555gpgy:5i,,>tai>",
"7p533$$&$Od>iti,,35pitpu3>5>>>>cg5g&<55555::555555i5443Ncaaityut",
"tg3$;$$$$$s;tt5;>555i7si>>5t5,tc4555:555;:,::355M5i5i45Baiaai775",
"3gy:$33:$#8;>>,;>3t5ytyyt:5pi5,xt,5>5555:p3:&&:355M534ipttzpyu,t",
"tug3=:5:$$1;;>,>5555ssiap>3t=:;z45ip555:>533::3;5pN53shNaaaty7yu",
"3<>$;$XO#o-;;*$$X$X:555i>*o&$#o8<#:,%&##X$:;:;$$%55#:8>tii,;:O;>",
"12dq2s2q66bw9d98888djws18689dd9bj4844g44888g48sss445dl9ddzk99d9-",
"<---37s43454y8833777wl-77->--t7tpt3-y37773v-=483833477yt7>t99y9c",
" #*y3>t$:3::=53O*3:$td:,###*;>;#$$O;;oo*$Xd>;&$;>:;>;;t>;#>,;;*z",
" Opyt7=3:333333:788=tw>>>,,t,>-:;:,,*;;;$ox>;>>>:=>5,,t5,;+,t>*k",
" X7>>73=%=;;>$==3ty3tu$:,;,,>>>;:tt;;:;,*Xd>>>>,3:;5:>;,,;;;,,;u",
"+-3>:31%%$::>73333ji79*3y,>>>>a;:,5;;>::>o9::3>,;;=5>>>,t,t,*t;k",
"@=y3==::=$=;3y5:333:3d*>,i,>>tt,;t3>:>,o$$a=:>,>5>:>,5,,i,,i,t5C",
"@$77=-3>33$=:3::3y-:7u*>t,>t3>3:,73>::**$Od;;;;:5i555t,iiaat::,c",
"-o=5353383$$::**3t357u*>9t>>>>:;>+>,--:;$Ok;,-it>55i,i,:,att:;;C",
"@o=5$3337t>$>3::3:333y$;3>:*:3:->7373333#$s=,,t>;->,,ty,>t,ai>;c",
"O 3-O-74873=-73=%;:%4wX:331:353:+,5y5>>:%$d*7>,,,;>>tt,i,,t,,t>c",
"OO8=O==377--O=-$:=:348$ittt33373333->3>=;$k*,,t,>;>,:t,t,tt>,,>z",
"O@7>O+==33>7*>t%%;:t88%53>t,35t83,>:=:>=;$k::,,;>,>,>,yt,,>>>,,z",
" *->-=>->7u7s3533tas3s:3337>>7y7>73:=33:>$9>;;>->tt>t7,:,->,,,;z",
"O*-3---3=1y-3t433hzytd3itpt>i777-73-:>3:=X8$;;;>,>,>33;,:;>--*#c",
"  O+X $O X$-*$*+o=:$-s$:>3:=*OOO;+**$oo XX6o$OO* oo+***;#..ooo.u",
"ewwwwqw96ws9fwsw9feqvvsq9fw89w9999f9qw20weDblllblclccwdkkkkdkkkS",
"8y71-17717v-478d7768789p879u977c<-3-137634347st87877cj->>-,-3t7t",
";;$$$XOXoX9$$$$$OO$;;;>:;;:t+**uO*>:;>>=-=$$*:<$;7>;d9#:&..;;,:;",
",>::$,:oOod>>3*==;>73,3->;;tt>;kO@337t3>=:3=>3y47uu:hk$:;$;,t,5i",
",,>;;:$$ook;$>=-;*-:33*-i:,,ty;k@O:>>>==+=>33333>7y>wf->$*;;i>>>",
";,>$>=O*O$wo$:==;--73y;7yyt,7i-z3==-+%3=:-33:=:5t7s>tq<8;;-;->,t",
";t>=>$$o$$d$*;3:->,77t3,utiu7;;c=+:==-33:=%$%-33,u3*dr+=>;,>>,it",
"t>>>>>3::*f:3:%;-,575t7tizit;*>z-$=3>=:333O$$%t3t733dr==,>;,ttt>",
"--3>-73=>*f::33377t7>t>,-tii>>>c=X=3=3:-3:$$$-55t>:=gf=57;;,>->;",
">:3333=$:;f=>-333=:-5it,yuiit>;x%o$:O$=:33+$*3>--:$$dr<3t;;;>,->",
"73333+$=o+d+:33:>->tai7;ttu37::c-o-=+=--3>==$-4:$*=OgvX$;t>;>>,>",
"7>33;%$=O+x=>7t37>>77ut7,y3:,>;xOo:=$=:3=--:$%=*===$de<;>>->>,,7",
">::3===*==d>3tt3:-ttytyyy,:--3>l@o%3%$38s3:3=33$$=33wq@:>,,>7,-7",
"=3:33=;%3$d3>>i333i7tyt3t,-:-5>l+*=3333d8-3-343-3-5398$:53>>77,>",
">3:>>=%=5=d>3>>3==3p1-7>,7==3t:k@:>33333=-3-33:--3339q=:>5>3>,--",
"OO$OOoO== d$;$O+OO*>$O+$o$OO:>:k=O=$O$:-O++OoX*OXOOX9q++o;;;+-;+",
"9ss9d842s8bxlddd9fklk9dkkxckxxbndfw9k8weseds08868sfslb9kk9d999d9"
};
